<?xml version="1.0" encoding="UTF-8" standalone="no"?>
<!-- Created with Inkscape (http://www.inkscape.org/) -->

<svg
   xmlns:osb="http://www.openswatchbook.org/uri/2009/osb"
   xmlns:dc="http://purl.org/dc/elements/1.1/"
   xmlns:cc="http://creativecommons.org/ns#"
   xmlns:rdf="http://www.w3.org/1999/02/22-rdf-syntax-ns#"
   xmlns:svg="http://www.w3.org/2000/svg"
   xmlns="http://www.w3.org/2000/svg"
   xmlns:sodipodi="http://sodipodi.sourceforge.net/DTD/sodipodi-0.dtd"
   xmlns:inkscape="http://www.inkscape.org/namespaces/inkscape"
   width="512"
   height="512"
   id="svg2"
   version="1.1"
   inkscape:version="0.48.4 r9939"
   sodipodi:docname="background_app_launcher.svg">
  <defs
     id="defs4">
    <linearGradient
       id="linearGradient3839"
       osb:paint="solid">
      <stop
         style="stop-color:#191919;stop-opacity:1;"
         offset="0"
         id="stop3841" />
    </linearGradient>
    <linearGradient
       id="linearGradient3868">
      <stop
         style="stop-color:#ececec;stop-opacity:1;"
         offset="0"
         id="stop3870" />
      <stop
         style="stop-color:#dcdcdc;stop-opacity:1;"
         offset="1"
         id="stop3872" />
    </linearGradient>
    <filter
       inkscape:collect="always"
       id="filter3884">
      <feGaussianBlur
         inkscape:collect="always"
         stdDeviation="4.91"
         id="feGaussianBlur3886" />
    </filter>
    <filter
       inkscape:collect="always"
       id="filter4918">
      <feGaussianBlur
         inkscape:collect="always"
         stdDeviation="2.455"
         id="feGaussianBlur4920" />
    </filter>
  </defs>
  <sodipodi:namedview
     id="base"
     pagecolor="#0092cc"
     bordercolor="#666666"
     borderopacity="1.0"
     inkscape:pageopacity="0"
     inkscape:pageshadow="2"
     inkscape:zoom="1"
     inkscape:cx="342.5"
     inkscape:cy="256"
     inkscape:document-units="px"
     inkscape:current-layer="layer1"
     showgrid="false"
     inkscape:window-width="1280"
     inkscape:window-height="749"
     inkscape:window-x="0"
     inkscape:window-y="26"
     inkscape:window-maximized="1" />
  <metadata
     id="metadata7">
    <rdf:RDF>
      <cc:Work
         rdf:about="">
        <dc:format>image/svg+xml</dc:format>
        <dc:type
           rdf:resource="http://purl.org/dc/dcmitype/StillImage" />
        <dc:title />
      </cc:Work>
    </rdf:RDF>
  </metadata>
  <g
     inkscape:label="Layer 1"
     inkscape:groupmode="layer"
     id="layer1"
     transform="translate(0,-540.3622)">
    <path
       id="path3911"
       style="fill:#323232;fill-opacity:0.74901962000000000;fill-rule:nonzero;stroke:#fafafa;stroke-width:1;stroke-miterlimit:4;stroke-opacity:0.32941177;stroke-dasharray:none"
       d="m 501.5,1037.906 c 0,2.1917 -2.13854,3.9562 -4.79492,3.9562 l -481.410158,0 c -2.656387,0 -4.794948,-1.7645 -4.794922,-3.9562 1.42e-4,-7.647 1.4e-5,-463.17167 4.59e-4,-470.81852 0,-2.18749 2.138556,-3.93675 4.794913,-3.94825 l 14.759332,0 9.997346,-12.27703 9.997343,12.27703 446.655187,0 c 2.65638,0 4.79476,1.76086 4.7949,3.94825 5.2e-4,7.64685 4.2e-4,463.17152 5.2e-4,470.81852 z"
       inkscape:connector-curvature="0"
       sodipodi:nodetypes="cssccscccscc" />
    <path
       sodipodi:nodetypes="cssccscccscc"
       inkscape:connector-curvature="0"
       d="m 501.5,1037.906 c 0,2.1917 -2.13854,3.9562 -4.79492,3.9562 l -481.410158,0 c -2.656387,0 -4.794948,-1.7645 -4.794922,-3.9562 1.42e-4,-7.647 1.4e-5,-463.17167 4.59e-4,-470.81852 0,-2.18749 2.138556,-3.93675 4.794913,-3.94825 l 14.65902,0 9.997346,-12.27703 9.997343,12.27703 446.755499,0 c 2.65638,0 4.79476,1.76086 4.7949,3.94825 5.2e-4,7.64685 4.2e-4,463.17152 5.2e-4,470.81852 z"
       style="fill:none;stroke:#000000;stroke-width:1.00501561;stroke-miterlimit:4;stroke-opacity:1;stroke-dasharray:none;filter:url(#filter4918)"
       id="path3862"
       transform="matrix(1.0029492,0,0,1.0029492,-0.75500522,-2.3486653)" />
  </g>
</svg>
