<?xml version="1.0" encoding="UTF-8" standalone="no"?>
<svg
   xmlns:dc="http://purl.org/dc/elements/1.1/"
   xmlns:cc="http://creativecommons.org/ns#"
   xmlns:rdf="http://www.w3.org/1999/02/22-rdf-syntax-ns#"
   xmlns:svg="http://www.w3.org/2000/svg"
   xmlns="http://www.w3.org/2000/svg"
   xmlns:sodipodi="http://sodipodi.sourceforge.net/DTD/sodipodi-0.dtd"
   xmlns:inkscape="http://www.inkscape.org/namespaces/inkscape"
   style="overflow:hidden"
   width="128"
   version="1.1"
   height="128"
   id="svg2"
   inkscape:version="0.48.3.1 r9886"
   sodipodi:docname="config.svg"><metadata
   id="metadata354">
  <rdf:RDF>
    <cc:Work
       rdf:about="">
      <dc:format>image/svg+xml</dc:format>
      <dc:type
         rdf:resource="http://purl.org/dc/dcmitype/StillImage" />
    </cc:Work>
  </rdf:RDF>
</metadata>
<sodipodi:namedview
   pagecolor="#ffffff"
   bordercolor="#666666"
   borderopacity="1"
   objecttolerance="10"
   gridtolerance="10"
   guidetolerance="10"
   inkscape:pageopacity="0"
   inkscape:pageshadow="2"
   inkscape:window-width="1280"
   inkscape:window-height="756"
   id="namedview352"
   showgrid="false"
   inkscape:zoom="0.67428571"
   inkscape:cx="-21.504237"
   inkscape:cy="175"
   inkscape:window-x="0"
   inkscape:window-y="22"
   inkscape:window-maximized="1"
   inkscape:current-layer="svg2" />
<desc
   id="desc4">Created with Raphaël 2.1.2</desc>
<defs
   id="defs6" />
​​​​​<rect
   style="opacity:0;fill:#000000;stroke:#000000"
   ry="0"
   rx="0"
   r="0"
   height="350"
   width="350"
   y="-222"
   x="0"
   id="rect350" />
<path
   d="m 127.0693,71.189463 c 0.26505,-2.364733 0.4307,-4.754315 0.4307,-7.189459 0,0 -0.16565,-4.828864 -0.4307,-7.193607 0,0 -18.12689,-6.448152 -18.12689,-6.448152 -0.90282,-2.965237 -2.08725,-5.802086 -3.52433,-8.489856 0,0 8.25381,-17.360727 8.25381,-17.360727 -3.00251,-3.768668 -6.41502,-7.181172 -10.17956,-10.183688 0,0 -17.364863,8.257946 -17.364863,8.257946 -2.679481,-1.437072 -5.524619,-2.61737 -8.485714,-3.516052 0,0 -6.452293,-18.13102208 -6.452293,-18.13102208 -2.364737,-0.2650485 -4.754321,-0.43484605 -7.189462,-0.43484605 0,0 -4.828865,0.16979755 -7.193602,0.43484605 0,0 -6.44401,18.13102208 -6.44401,18.13102208 -2.965238,0.898682 -5.802094,2.07898 -8.489859,3.516052 0,0 -17.364866,-8.257946 -17.364866,-8.257946 -3.768669,3.002516 -7.181178,6.41502 -10.18369,10.183688 0,0 8.257942,17.360727 8.257942,17.360727 -1.437064,2.683622 -2.617362,5.524619 -3.516045,8.489856 0,0 -18.13102589,6.448152 -18.13102589,6.448152 C 0.66979056,59.17114 0.5,61.56486 0.5,64.000004 c 0,0 0.16979056,4.824726 0.43484211,7.189459 0,0 18.13102589,6.45229 18.13102589,6.45229 0.898683,2.961094 2.078981,5.802092 3.516045,8.485714 0,0 -8.257942,17.364873 -8.257942,17.364873 3.002512,3.76452 6.415021,7.17704 10.18369,10.17955 0,0 17.360725,-8.25381 17.360725,-8.25381 2.683623,1.43708 5.524619,2.62151 8.489858,3.52433 0,0 6.448152,18.12689 6.448152,18.12689 2.364737,0.26505 4.754321,0.4307 7.193602,0.4307 2.435141,0 4.824725,-0.16565 7.189462,-0.4307 0,0 6.452293,-18.12689 6.452293,-18.12689 2.961095,-0.90282 5.793809,-2.08725 8.485714,-3.52433 0,0 17.364863,8.25381 17.364863,8.25381 3.76453,-3.00251 7.17705,-6.41503 10.17956,-10.17955 0,0 -8.25381,-17.364872 -8.25381,-17.364872 1.43707,-2.679474 2.62151,-5.52462 3.52433,-8.485714 0,0 18.12689,-6.45229 18.12689,-6.45229 0,0 0,0 0,0 M 63.999998,84.172737 c -11.140351,0 -20.176874,-9.036519 -20.176874,-20.172733 0,-11.140352 9.036523,-20.176875 20.176874,-20.176875 11.136211,0 20.172731,9.036523 20.172731,20.176875 0,11.136214 -9.03652,20.172733 -20.172731,20.172733 0,0 0,0 0,0"
   style="fill:#ffffff;fill-opacity:1;stroke:none"
   id="path8"
   inkscape:connector-curvature="0" />
​​​​​</svg>
