<?xml version="1.0" encoding="UTF-8" standalone="no"?>
<!-- Created with Inkscape (http://www.inkscape.org/) -->

<svg
   xmlns:dc="http://purl.org/dc/elements/1.1/"
   xmlns:cc="http://creativecommons.org/ns#"
   xmlns:rdf="http://www.w3.org/1999/02/22-rdf-syntax-ns#"
   xmlns:svg="http://www.w3.org/2000/svg"
   xmlns="http://www.w3.org/2000/svg"
   xmlns:sodipodi="http://sodipodi.sourceforge.net/DTD/sodipodi-0.dtd"
   xmlns:inkscape="http://www.inkscape.org/namespaces/inkscape"
   width="128"
   height="128"
   id="svg2"
   version="1.1"
   inkscape:version="0.48.3.1 r9886"
   sodipodi:docname="elementary_logo.svg">
  <defs
     id="defs4">
    <inkscape:path-effect
       is_visible="true"
       id="path-effect2991"
       effect="spiro" />
    <inkscape:path-effect
       effect="spiro"
       id="path-effect3177"
       is_visible="true" />
  </defs>
  <sodipodi:namedview
     id="base"
     pagecolor="#ffffff"
     bordercolor="#666666"
     borderopacity="1.0"
     inkscape:pageopacity="0.0"
     inkscape:pageshadow="2"
     inkscape:zoom="4.390625"
     inkscape:cx="64"
     inkscape:cy="64"
     inkscape:document-units="px"
     inkscape:current-layer="layer1"
     showgrid="false"
     showguides="false"
     inkscape:guide-bbox="true"
     inkscape:window-width="1280"
     inkscape:window-height="756"
     inkscape:window-x="0"
     inkscape:window-y="22"
     inkscape:window-maximized="1"
     fit-margin-top="4"
     fit-margin-left="4"
     fit-margin-right="4"
     fit-margin-bottom="4">
    <sodipodi:guide
       orientation="1,0"
       position="4,4"
       id="guide2985" />
    <sodipodi:guide
       orientation="1,0"
       position="604,459.18566"
       id="guide2987" />
    <sodipodi:guide
       orientation="0,1"
       position="-198.43278,4"
       id="guide2989" />
    <sodipodi:guide
       orientation="0,1"
       position="-265.01408,604"
       id="guide2991" />
    <inkscape:grid
       type="xygrid"
       id="grid3047"
       empspacing="5"
       visible="true"
       enabled="true"
       snapvisiblegridlinesonly="true" />
  </sodipodi:namedview>
  <metadata
     id="metadata7">
    <rdf:RDF>
      <cc:Work
         rdf:about="">
        <dc:format>image/svg+xml</dc:format>
        <dc:type
           rdf:resource="http://purl.org/dc/dcmitype/StillImage" />
        <dc:title />
      </cc:Work>
    </rdf:RDF>
  </metadata>
  <g
     inkscape:label="Layer 1"
     inkscape:groupmode="layer"
     id="layer1"
     transform="translate(-96,-828.36218)">
    <path
       style="fill:#ffffff;fill-opacity:1;stroke:none"
       d="m 220.50292,865.7568 c -5.42894,16.60974 -14.26412,32.10261 -25.80751,45.22277 -5.5453,6.30277 -11.74845,12.0932 -18.86569,16.54521 -7.11721,4.45201 -15.19386,7.5288 -23.56313,8.18499 -6.28803,0.49297 -12.68836,-0.40458 -18.56539,-2.68884 13.41044,-9.821 25.04925,-22.06428 34.03612,-36.04967 5.8988,-9.17973 10.76654,-19.36186 11.69287,-30.23408 0.46316,-5.43612 -0.0898,-10.98773 -1.91646,-16.12866 -1.82669,-5.14094 -4.96095,-9.84998 -9.20061,-13.28379 -4.14192,-3.35462 -9.26214,-5.43276 -14.54458,-6.14306 -5.28247,-0.71033 -10.71494,-0.0804 -15.78056,1.57753 -10.13125,3.31562 -18.58433,10.61919 -25.00223,19.13071 -11.31253,15.00281 -16.877432,34.75423 -12.85963,53.10944 2.0089,9.1776 6.36175,17.87138 12.731,24.77768 1.42169,1.5416 2.95053,2.98609 4.55975,4.33294 -7.39188,3.77513 -13.41394,7.55551 -21.41687,9.75617 l 5.30961,6.71291 c 8.12467,-3.04756 15.94639,-6.90025 23.33173,-11.4537 3.79424,2.14902 7.88311,3.77837 12.12929,4.77513 12.22815,2.87046 25.33357,0.42675 36.53896,-5.24828 11.20541,-5.67502 20.63792,-14.40474 28.57052,-24.14339 9.44976,-11.60126 16.9539,-24.77975 22.11989,-38.82226 z m -76.13126,-29.3077 c 5.20697,-0.70252 10.66319,0.15847 15.24499,2.73014 4.12797,2.31695 7.44948,5.96107 9.62409,10.16576 2.1746,4.2047 3.2324,8.94852 3.33143,13.68121 0.19811,9.46542 -3.33773,18.65288 -7.9995,26.89308 -8.25428,14.5903 -20.17908,26.9933 -34.03613,36.42684 -1.41838,0.96561 -2.86599,1.89696 -4.32413,2.80128 -3.62098,-2.38976 -6.85152,-5.36927 -9.47528,-8.8231 -5.48244,-7.21689 -8.20537,-16.30664 -8.5675,-25.36257 -0.36216,-9.05592 1.53069,-18.08963 4.56361,-26.63027 3.51648,-9.90249 8.83448,-19.55323 17.26596,-25.82503 4.21574,-3.13588 9.16552,-5.35449 14.37246,-6.05734 z"
       id="path2993"
       inkscape:connector-curvature="0"
       sodipodi:nodetypes="cssscsssssssssccccsssccsssssscsssss" />
  </g>
</svg>
