<svg style="overflow: hidden; position: relative;" xmlns="http://www.w3.org/2000/svg" width="350" version="1.1" height="350"><desc>Created with Raphaël 2.1.2</desc><defs></defs><path fill-opacity="0" transform="matrix(10,0,0,10,10,10)" stroke-width="0.1" d="M21.053,20.8C19.921,20.347,19.469,19.102,19.469,19.102C19.469,19.102,18.959,19.384,18.959,18.592C18.959,18.592,19.469,19.102,19.979,16.043999999999997C19.979,16.043999999999997,21.393,15.646999999999997,21.111,12.363999999999997C21.111,12.363999999999997,20.771,12.363999999999997,20.771,12.363999999999997C20.771,12.363999999999997,21.62,8.853999999999997,20.771,7.664999999999997C19.921,6.475999999999997,19.582,5.6839999999999975,17.713,5.116999999999997C17.713,5.116999999999997,16.525000000000002,4.662999999999998,15.166,4.720999999999997C13.807,4.777999999999998,12.674,5.512999999999997,12.674,5.908999999999997C12.674,5.908999999999997,11.825,5.9659999999999975,11.485999999999999,6.305999999999997C11.145999999999999,6.645999999999997,10.579999999999998,8.229999999999997,10.579999999999998,8.626999999999997C10.579999999999998,8.626999999999997,10.862999999999998,11.684999999999997,11.145999999999999,12.250999999999998C11.145999999999999,12.250999999999998,10.809,12.363999999999997,10.809,12.363999999999997C10.526,15.646999999999997,11.940999999999999,16.043999999999997,11.940999999999999,16.043999999999997C12.45,19.101999999999997,12.959999999999999,17.799999999999997,12.959999999999999,18.592C12.959999999999999,18.592,12.45,19.102,12.45,19.102C12.45,19.102,11.998,20.347,10.866,20.8C9.734,21.252000000000002,3.4499999999999993,23.686,2.939,24.196C2.428,24.707,2.486,27.084000000000003,2.486,27.084000000000003C2.486,27.084000000000003,29.433,27.084000000000003,29.433,27.084000000000003C29.433,27.084000000000003,29.492,24.707000000000004,28.980999999999998,24.196000000000005C28.469,23.686,22.185,21.252,21.053,20.8C21.053,20.8,21.053,20.8,21.053,20.8M8.583,20.628C8.484,20.448,8.435,20.318,8.435,20.318C8.435,20.318,8.003,20.557000000000002,8.003,19.886000000000003C8.003,19.886000000000003,8.435,20.318,8.867,17.727000000000004C8.867,17.727000000000004,10.066,17.391000000000005,9.826,14.608000000000004C9.826,14.608000000000004,9.538,14.608000000000004,9.538,14.608000000000004C9.538,14.608000000000004,9.681000000000001,14.017000000000005,9.775,13.274000000000004C9.771,12.966000000000005,9.781,12.638000000000005,9.812000000000001,12.278000000000004C9.812000000000001,12.278000000000004,9.850000000000001,11.852000000000004,9.850000000000001,11.852000000000004C9.829,11.360000000000003,9.743000000000002,10.913000000000004,9.538000000000002,10.626000000000005C8.818,9.619,8.53,8.947,6.947,8.467C5.364,7.987,5.939,8.082,4.788,8.131C3.636,8.179,2.676,8.802,2.676,9.139C2.676,9.139,1.9560000000000002,9.187,1.6680000000000001,9.475C1.3970000000000002,9.746,0.9630000000000002,10.937,0.9110000000000001,11.36C0.9110000000000001,11.36,0.9110000000000001,11.641,0.9110000000000001,11.641C0.9580000000000002,12.294,1.169,14.09,1.3800000000000001,14.513C1.3800000000000001,14.513,1.094,14.609,1.094,14.609C0.8550000000000001,17.392,2.053,17.728,2.053,17.728C2.485,20.319000000000003,2.917,19.216,2.917,19.887C2.917,19.887,2.485,20.319,2.485,20.319C2.485,20.319,2.102,21.375999999999998,1.142,21.758C1.081,21.782,1.003,21.814,0.9099999999999999,21.849999999999998C0.9099999999999999,21.849999999999998,0.9099999999999999,27.083999999999996,0.9099999999999999,27.083999999999996C0.9099999999999999,27.083999999999996,1.4849999999999999,27.083999999999996,1.4849999999999999,27.083999999999996C1.456,25.805999999999997,1.5619999999999998,24.156999999999996,2.231,23.489999999999995C2.587,23.135,3.754,22.551,8.583,20.628C8.583,20.628,8.583,20.628,8.583,20.628M30.913,11.572C30.873,11.193999999999999,30.786,10.857,30.621,10.626C29.901999999999997,9.617999999999999,29.613,8.947,28.031,8.466999999999999C26.447,7.986999999999998,27.023,8.081999999999999,25.871,8.130999999999998C24.72,8.179,23.76,8.802,23.76,9.139C23.76,9.139,23.041,9.187,22.752000000000002,9.475C22.481,9.747,22.043000000000003,10.947,21.994000000000003,11.366C21.994000000000003,11.366,22.027000000000005,11.366,22.027000000000005,11.366C22.027000000000005,11.366,22.107000000000003,12.279,22.107000000000003,12.279C22.127000000000002,12.51,22.129,12.715,22.134000000000004,12.924C22.224000000000004,13.59,22.344000000000005,14.274,22.464000000000002,14.513C22.464000000000002,14.513,22.178,14.609,22.178,14.609C21.939,17.392,23.138,17.728,23.138,17.728C23.57,20.319000000000003,24.001,19.216,24.001,19.887C24.001,19.887,23.569000000000003,20.319,23.569000000000003,20.319C23.569000000000003,20.319,23.516000000000002,20.461,23.406000000000002,20.657C28.176000000000002,22.557,29.333000000000002,23.137,29.685000000000002,23.491C30.355000000000004,24.158,30.46,25.806,30.431,27.085C30.431,27.085,30.911,27.085,30.911,27.085C30.911,27.085,30.911,21.779,30.911,21.779C30.895000000000003,21.773,30.873,21.764,30.859,21.758C29.900000000000002,21.375,29.516000000000002,20.319,29.516000000000002,20.319C29.516000000000002,20.319,29.083000000000002,20.558,29.083000000000002,19.887C29.083000000000002,19.887,29.516000000000002,20.319,29.947000000000003,17.728C29.947000000000003,17.728,30.751,17.499000000000002,30.910000000000004,15.887000000000002C30.910000000000004,15.887000000000002,30.910000000000004,14.660000000000002,30.910000000000004,14.660000000000002C30.909000000000002,14.642000000000001,30.909000000000002,14.627000000000002,30.907000000000004,14.609000000000002C30.907000000000004,14.609000000000002,30.618000000000002,14.609000000000002,30.618000000000002,14.609000000000002C30.618000000000002,14.609000000000002,30.833000000000002,13.719000000000001,30.910000000000004,12.748000000000001C30.910000000000004,12.748000000000001,30.910000000000004,11.572,30.910000000000004,11.572C30.910000000000004,11.572,30.913,11.572,30.913,11.572" stroke="#333333" fill="#333333" style="fill-opacity: 0;"></path><circle transform="matrix(10,0,0,10,10,10)" opacity="0.5" stroke-width="0.1" style="opacity: 0.5;" stroke="#333333" fill="#333333" r="0.1" cy="20.347" cx="19.921"></circle><circle transform="matrix(10,0,0,10,10,10)" opacity="0.5" stroke-width="0.1" style="opacity: 0.5;" stroke="#333333" fill="#333333" r="0.1" cy="19.102" cx="19.469"></circle><path transform="matrix(10,0,0,10,10,10)" opacity="0.5" stroke-width="0.1" d="M21.053,20.8L19.921,20.347M19.469,19.102L19.469,19.102" stroke="#333333" fill="#333333" style="opacity: 0.5;"></path><circle transform="matrix(10,0,0,10,10,10)" opacity="0.5" stroke-width="0.1" style="opacity: 0.5;" stroke="#333333" fill="#333333" r="0.1" cy="19.102" cx="19.469"></circle><circle transform="matrix(10,0,0,10,10,10)" opacity="0.5" stroke-width="0.1" style="opacity: 0.5;" stroke="#333333" fill="#333333" r="0.1" cy="19.384" cx="18.959"></circle><path transform="matrix(10,0,0,10,10,10)" opacity="0.5" stroke-width="0.1" d="M19.469,19.102L19.469,19.102M18.959,19.384L18.959,18.592" stroke="#333333" fill="#333333" style="opacity: 0.5;"></path><circle transform="matrix(10,0,0,10,10,10)" opacity="0.5" stroke-width="0.1" style="opacity: 0.5;" stroke="#333333" fill="#333333" r="0.1" cy="18.592" cx="18.959"></circle><circle transform="matrix(10,0,0,10,10,10)" opacity="0.5" stroke-width="0.1" style="opacity: 0.5;" stroke="#333333" fill="#333333" r="0.1" cy="19.102" cx="19.469"></circle><path transform="matrix(10,0,0,10,10,10)" opacity="0.5" stroke-width="0.1" d="M18.959,18.592L18.959,18.592M19.469,19.102L19.979,16.043999999999997" stroke="#333333" fill="#333333" style="opacity: 0.5;"></path><circle transform="matrix(10,0,0,10,10,10)" opacity="0.5" stroke-width="0.1" style="opacity: 0.5;" stroke="#333333" fill="#333333" r="0.1" cy="16.043999999999997" cx="19.979"></circle><circle transform="matrix(10,0,0,10,10,10)" opacity="0.5" stroke-width="0.1" style="opacity: 0.5;" stroke="#333333" fill="#333333" r="0.1" cy="15.646999999999997" cx="21.393"></circle><path transform="matrix(10,0,0,10,10,10)" opacity="0.5" stroke-width="0.1" d="M19.979,16.043999999999997L19.979,16.043999999999997M21.393,15.646999999999997L21.111,12.363999999999997" stroke="#333333" fill="#333333" style="opacity: 0.5;"></path><circle transform="matrix(10,0,0,10,10,10)" opacity="0.5" stroke-width="0.1" style="opacity: 0.5;" stroke="#333333" fill="#333333" r="0.1" cy="12.363999999999997" cx="21.111"></circle><circle transform="matrix(10,0,0,10,10,10)" opacity="0.5" stroke-width="0.1" style="opacity: 0.5;" stroke="#333333" fill="#333333" r="0.1" cy="12.363999999999997" cx="20.771"></circle><path transform="matrix(10,0,0,10,10,10)" opacity="0.5" stroke-width="0.1" d="M21.111,12.363999999999997L21.111,12.363999999999997M20.771,12.363999999999997L20.771,12.363999999999997" stroke="#333333" fill="#333333" style="opacity: 0.5;"></path><circle transform="matrix(10,0,0,10,10,10)" opacity="0.5" stroke-width="0.1" style="opacity: 0.5;" stroke="#333333" fill="#333333" r="0.1" cy="12.363999999999997" cx="20.771"></circle><circle transform="matrix(10,0,0,10,10,10)" opacity="0.5" stroke-width="0.1" style="opacity: 0.5;" stroke="#333333" fill="#333333" r="0.1" cy="8.853999999999997" cx="21.62"></circle><path transform="matrix(10,0,0,10,10,10)" opacity="0.5" stroke-width="0.1" d="M20.771,12.363999999999997L20.771,12.363999999999997M21.62,8.853999999999997L20.771,7.664999999999997" stroke="#333333" fill="#333333" style="opacity: 0.5;"></path><circle transform="matrix(10,0,0,10,10,10)" opacity="0.5" stroke-width="0.1" style="opacity: 0.5;" stroke="#333333" fill="#333333" r="0.1" cy="6.475999999999997" cx="19.921"></circle><circle transform="matrix(10,0,0,10,10,10)" opacity="0.5" stroke-width="0.1" style="opacity: 0.5;" stroke="#333333" fill="#333333" r="0.1" cy="5.6839999999999975" cx="19.582"></circle><path transform="matrix(10,0,0,10,10,10)" opacity="0.5" stroke-width="0.1" d="M20.771,7.664999999999997L19.921,6.475999999999997M19.582,5.6839999999999975L17.713,5.116999999999997" stroke="#333333" fill="#333333" style="opacity: 0.5;"></path><circle transform="matrix(10,0,0,10,10,10)" opacity="0.5" stroke-width="0.1" style="opacity: 0.5;" stroke="#333333" fill="#333333" r="0.1" cy="5.116999999999997" cx="17.713"></circle><circle transform="matrix(10,0,0,10,10,10)" opacity="0.5" stroke-width="0.1" style="opacity: 0.5;" stroke="#333333" fill="#333333" r="0.1" cy="4.662999999999998" cx="16.525000000000002"></circle><path transform="matrix(10,0,0,10,10,10)" opacity="0.5" stroke-width="0.1" d="M17.713,5.116999999999997L17.713,5.116999999999997M16.525000000000002,4.662999999999998L15.166,4.720999999999997" stroke="#333333" fill="#333333" style="opacity: 0.5;"></path><circle transform="matrix(10,0,0,10,10,10)" opacity="0.5" stroke-width="0.1" style="opacity: 0.5;" stroke="#333333" fill="#333333" r="0.1" cy="4.777999999999998" cx="13.807"></circle><circle transform="matrix(10,0,0,10,10,10)" opacity="0.5" stroke-width="0.1" style="opacity: 0.5;" stroke="#333333" fill="#333333" r="0.1" cy="5.512999999999997" cx="12.674"></circle><path transform="matrix(10,0,0,10,10,10)" opacity="0.5" stroke-width="0.1" d="M15.166,4.720999999999997L13.807,4.777999999999998M12.674,5.512999999999997L12.674,5.908999999999997" stroke="#333333" fill="#333333" style="opacity: 0.5;"></path><circle transform="matrix(10,0,0,10,10,10)" opacity="0.5" stroke-width="0.1" style="opacity: 0.5;" stroke="#333333" fill="#333333" r="0.1" cy="5.908999999999997" cx="12.674"></circle><circle transform="matrix(10,0,0,10,10,10)" opacity="0.5" stroke-width="0.1" style="opacity: 0.5;" stroke="#333333" fill="#333333" r="0.1" cy="5.9659999999999975" cx="11.825"></circle><path transform="matrix(10,0,0,10,10,10)" opacity="0.5" stroke-width="0.1" d="M12.674,5.908999999999997L12.674,5.908999999999997M11.825,5.9659999999999975L11.485999999999999,6.305999999999997" stroke="#333333" fill="#333333" style="opacity: 0.5;"></path><circle transform="matrix(10,0,0,10,10,10)" opacity="0.5" stroke-width="0.1" style="opacity: 0.5;" stroke="#333333" fill="#333333" r="0.1" cy="6.645999999999997" cx="11.145999999999999"></circle><circle transform="matrix(10,0,0,10,10,10)" opacity="0.5" stroke-width="0.1" style="opacity: 0.5;" stroke="#333333" fill="#333333" r="0.1" cy="8.229999999999997" cx="10.579999999999998"></circle><path transform="matrix(10,0,0,10,10,10)" opacity="0.5" stroke-width="0.1" d="M11.485999999999999,6.305999999999997L11.145999999999999,6.645999999999997M10.579999999999998,8.229999999999997L10.579999999999998,8.626999999999997" stroke="#333333" fill="#333333" style="opacity: 0.5;"></path><circle transform="matrix(10,0,0,10,10,10)" opacity="0.5" stroke-width="0.1" style="opacity: 0.5;" stroke="#333333" fill="#333333" r="0.1" cy="8.626999999999997" cx="10.579999999999998"></circle><circle transform="matrix(10,0,0,10,10,10)" opacity="0.5" stroke-width="0.1" style="opacity: 0.5;" stroke="#333333" fill="#333333" r="0.1" cy="11.684999999999997" cx="10.862999999999998"></circle><path transform="matrix(10,0,0,10,10,10)" opacity="0.5" stroke-width="0.1" d="M10.579999999999998,8.626999999999997L10.579999999999998,8.626999999999997M10.862999999999998,11.684999999999997L11.145999999999999,12.250999999999998" stroke="#333333" fill="#333333" style="opacity: 0.5;"></path><circle transform="matrix(10,0,0,10,10,10)" opacity="0.5" stroke-width="0.1" style="opacity: 0.5;" stroke="#333333" fill="#333333" r="0.1" cy="12.250999999999998" cx="11.145999999999999"></circle><circle transform="matrix(10,0,0,10,10,10)" opacity="0.5" stroke-width="0.1" style="opacity: 0.5;" stroke="#333333" fill="#333333" r="0.1" cy="12.363999999999997" cx="10.809"></circle><path transform="matrix(10,0,0,10,10,10)" opacity="0.5" stroke-width="0.1" d="M11.145999999999999,12.250999999999998L11.145999999999999,12.250999999999998M10.809,12.363999999999997L10.809,12.363999999999997" stroke="#333333" fill="#333333" style="opacity: 0.5;"></path><circle transform="matrix(10,0,0,10,10,10)" opacity="0.5" stroke-width="0.1" style="opacity: 0.5;" stroke="#333333" fill="#333333" r="0.1" cy="15.646999999999997" cx="10.526"></circle><circle transform="matrix(10,0,0,10,10,10)" opacity="0.5" stroke-width="0.1" style="opacity: 0.5;" stroke="#333333" fill="#333333" r="0.1" cy="16.043999999999997" cx="11.940999999999999"></circle><path transform="matrix(10,0,0,10,10,10)" opacity="0.5" stroke-width="0.1" d="M10.809,12.363999999999997L10.526,15.646999999999997M11.940999999999999,16.043999999999997L11.940999999999999,16.043999999999997" stroke="#333333" fill="#333333" style="opacity: 0.5;"></path><circle transform="matrix(10,0,0,10,10,10)" opacity="0.5" stroke-width="0.1" style="opacity: 0.5;" stroke="#333333" fill="#333333" r="0.1" cy="19.101999999999997" cx="12.45"></circle><circle transform="matrix(10,0,0,10,10,10)" opacity="0.5" stroke-width="0.1" style="opacity: 0.5;" stroke="#333333" fill="#333333" r="0.1" cy="17.799999999999997" cx="12.959999999999999"></circle><path transform="matrix(10,0,0,10,10,10)" opacity="0.5" stroke-width="0.1" d="M11.940999999999999,16.043999999999997L12.45,19.101999999999997M12.959999999999999,17.799999999999997L12.959999999999999,18.592" stroke="#333333" fill="#333333" style="opacity: 0.5;"></path><circle transform="matrix(10,0,0,10,10,10)" opacity="0.5" stroke-width="0.1" style="opacity: 0.5;" stroke="#333333" fill="#333333" r="0.1" cy="18.592" cx="12.959999999999999"></circle><circle transform="matrix(10,0,0,10,10,10)" opacity="0.5" stroke-width="0.1" style="opacity: 0.5;" stroke="#333333" fill="#333333" r="0.1" cy="19.102" cx="12.45"></circle><path transform="matrix(10,0,0,10,10,10)" opacity="0.5" stroke-width="0.1" d="M12.959999999999999,18.592L12.959999999999999,18.592M12.45,19.102L12.45,19.102" stroke="#333333" fill="#333333" style="opacity: 0.5;"></path><circle transform="matrix(10,0,0,10,10,10)" opacity="0.5" stroke-width="0.1" style="opacity: 0.5;" stroke="#333333" fill="#333333" r="0.1" cy="19.102" cx="12.45"></circle><circle transform="matrix(10,0,0,10,10,10)" opacity="0.5" stroke-width="0.1" style="opacity: 0.5;" stroke="#333333" fill="#333333" r="0.1" cy="20.347" cx="11.998"></circle><path transform="matrix(10,0,0,10,10,10)" opacity="0.5" stroke-width="0.1" d="M12.45,19.102L12.45,19.102M11.998,20.347L10.866,20.8" stroke="#333333" fill="#333333" style="opacity: 0.5;"></path><circle transform="matrix(10,0,0,10,10,10)" opacity="0.5" stroke-width="0.1" style="opacity: 0.5;" stroke="#333333" fill="#333333" r="0.1" cy="21.252000000000002" cx="9.734"></circle><circle transform="matrix(10,0,0,10,10,10)" opacity="0.5" stroke-width="0.1" style="opacity: 0.5;" stroke="#333333" fill="#333333" r="0.1" cy="23.686" cx="3.4499999999999993"></circle><path transform="matrix(10,0,0,10,10,10)" opacity="0.5" stroke-width="0.1" d="M10.866,20.8L9.734,21.252000000000002M3.4499999999999993,23.686L2.939,24.196" stroke="#333333" fill="#333333" style="opacity: 0.5;"></path><circle transform="matrix(10,0,0,10,10,10)" opacity="0.5" stroke-width="0.1" style="opacity: 0.5;" stroke="#333333" fill="#333333" r="0.1" cy="24.707" cx="2.428"></circle><circle transform="matrix(10,0,0,10,10,10)" opacity="0.5" stroke-width="0.1" style="opacity: 0.5;" stroke="#333333" fill="#333333" r="0.1" cy="27.084000000000003" cx="2.486"></circle><path transform="matrix(10,0,0,10,10,10)" opacity="0.5" stroke-width="0.1" d="M2.939,24.196L2.428,24.707M2.486,27.084000000000003L2.486,27.084000000000003" stroke="#333333" fill="#333333" style="opacity: 0.5;"></path><circle transform="matrix(10,0,0,10,10,10)" opacity="0.5" stroke-width="0.1" style="opacity: 0.5;" stroke="#333333" fill="#333333" r="0.1" cy="27.084000000000003" cx="2.486"></circle><circle transform="matrix(10,0,0,10,10,10)" opacity="0.5" stroke-width="0.1" style="opacity: 0.5;" stroke="#333333" fill="#333333" r="0.1" cy="27.084000000000003" cx="29.433"></circle><path transform="matrix(10,0,0,10,10,10)" opacity="0.5" stroke-width="0.1" d="M2.486,27.084000000000003L2.486,27.084000000000003M29.433,27.084000000000003L29.433,27.084000000000003" stroke="#333333" fill="#333333" style="opacity: 0.5;"></path><circle transform="matrix(10,0,0,10,10,10)" opacity="0.5" stroke-width="0.1" style="opacity: 0.5;" stroke="#333333" fill="#333333" r="0.1" cy="27.084000000000003" cx="29.433"></circle><circle transform="matrix(10,0,0,10,10,10)" opacity="0.5" stroke-width="0.1" style="opacity: 0.5;" stroke="#333333" fill="#333333" r="0.1" cy="24.707000000000004" cx="29.492"></circle><path transform="matrix(10,0,0,10,10,10)" opacity="0.5" stroke-width="0.1" d="M29.433,27.084000000000003L29.433,27.084000000000003M29.492,24.707000000000004L28.980999999999998,24.196000000000005" stroke="#333333" fill="#333333" style="opacity: 0.5;"></path><circle transform="matrix(10,0,0,10,10,10)" opacity="0.5" stroke-width="0.1" style="opacity: 0.5;" stroke="#333333" fill="#333333" r="0.1" cy="23.686" cx="28.469"></circle><circle transform="matrix(10,0,0,10,10,10)" opacity="0.5" stroke-width="0.1" style="opacity: 0.5;" stroke="#333333" fill="#333333" r="0.1" cy="21.252" cx="22.185"></circle><path transform="matrix(10,0,0,10,10,10)" opacity="0.5" stroke-width="0.1" d="M28.980999999999998,24.196000000000005L28.469,23.686M22.185,21.252L21.053,20.8" stroke="#333333" fill="#333333" style="opacity: 0.5;"></path><circle transform="matrix(10,0,0,10,10,10)" opacity="0.5" stroke-width="0.1" style="opacity: 0.5;" stroke="#333333" fill="#333333" r="0.1" cy="20.8" cx="21.053"></circle><circle transform="matrix(10,0,0,10,10,10)" opacity="0.5" stroke-width="0.1" style="opacity: 0.5;" stroke="#333333" fill="#333333" r="0.1" cy="20.8" cx="21.053"></circle><path transform="matrix(10,0,0,10,10,10)" opacity="0.5" stroke-width="0.1" d="M21.053,20.8L21.053,20.8M21.053,20.8L21.053,20.8" stroke="#333333" fill="#333333" style="opacity: 0.5;"></path><circle transform="matrix(10,0,0,10,10,10)" opacity="0.5" stroke-width="0.1" style="opacity: 0.5;" stroke="#333333" fill="#333333" r="0.1" cy="20.448" cx="8.484"></circle><circle transform="matrix(10,0,0,10,10,10)" opacity="0.5" stroke-width="0.1" style="opacity: 0.5;" stroke="#333333" fill="#333333" r="0.1" cy="20.318" cx="8.435"></circle><path transform="matrix(10,0,0,10,10,10)" opacity="0.5" stroke-width="0.1" d="M8.583,20.628L8.484,20.448M8.435,20.318L8.435,20.318" stroke="#333333" fill="#333333" style="opacity: 0.5;"></path><circle transform="matrix(10,0,0,10,10,10)" opacity="0.5" stroke-width="0.1" style="opacity: 0.5;" stroke="#333333" fill="#333333" r="0.1" cy="20.318" cx="8.435"></circle><circle transform="matrix(10,0,0,10,10,10)" opacity="0.5" stroke-width="0.1" style="opacity: 0.5;" stroke="#333333" fill="#333333" r="0.1" cy="20.557000000000002" cx="8.003"></circle><path transform="matrix(10,0,0,10,10,10)" opacity="0.5" stroke-width="0.1" d="M8.435,20.318L8.435,20.318M8.003,20.557000000000002L8.003,19.886000000000003" stroke="#333333" fill="#333333" style="opacity: 0.5;"></path><circle transform="matrix(10,0,0,10,10,10)" opacity="0.5" stroke-width="0.1" style="opacity: 0.5;" stroke="#333333" fill="#333333" r="0.1" cy="19.886000000000003" cx="8.003"></circle><circle transform="matrix(10,0,0,10,10,10)" opacity="0.5" stroke-width="0.1" style="opacity: 0.5;" stroke="#333333" fill="#333333" r="0.1" cy="20.318" cx="8.435"></circle><path transform="matrix(10,0,0,10,10,10)" opacity="0.5" stroke-width="0.1" d="M8.003,19.886000000000003L8.003,19.886000000000003M8.435,20.318L8.867,17.727000000000004" stroke="#333333" fill="#333333" style="opacity: 0.5;"></path><circle transform="matrix(10,0,0,10,10,10)" opacity="0.5" stroke-width="0.1" style="opacity: 0.5;" stroke="#333333" fill="#333333" r="0.1" cy="17.727000000000004" cx="8.867"></circle><circle transform="matrix(10,0,0,10,10,10)" opacity="0.5" stroke-width="0.1" style="opacity: 0.5;" stroke="#333333" fill="#333333" r="0.1" cy="17.391000000000005" cx="10.066"></circle><path transform="matrix(10,0,0,10,10,10)" opacity="0.5" stroke-width="0.1" d="M8.867,17.727000000000004L8.867,17.727000000000004M10.066,17.391000000000005L9.826,14.608000000000004" stroke="#333333" fill="#333333" style="opacity: 0.5;"></path><circle transform="matrix(10,0,0,10,10,10)" opacity="0.5" stroke-width="0.1" style="opacity: 0.5;" stroke="#333333" fill="#333333" r="0.1" cy="14.608000000000004" cx="9.826"></circle><circle transform="matrix(10,0,0,10,10,10)" opacity="0.5" stroke-width="0.1" style="opacity: 0.5;" stroke="#333333" fill="#333333" r="0.1" cy="14.608000000000004" cx="9.538"></circle><path transform="matrix(10,0,0,10,10,10)" opacity="0.5" stroke-width="0.1" d="M9.826,14.608000000000004L9.826,14.608000000000004M9.538,14.608000000000004L9.538,14.608000000000004" stroke="#333333" fill="#333333" style="opacity: 0.5;"></path><circle transform="matrix(10,0,0,10,10,10)" opacity="0.5" stroke-width="0.1" style="opacity: 0.5;" stroke="#333333" fill="#333333" r="0.1" cy="14.608000000000004" cx="9.538"></circle><circle transform="matrix(10,0,0,10,10,10)" opacity="0.5" stroke-width="0.1" style="opacity: 0.5;" stroke="#333333" fill="#333333" r="0.1" cy="14.017000000000005" cx="9.681000000000001"></circle><path transform="matrix(10,0,0,10,10,10)" opacity="0.5" stroke-width="0.1" d="M9.538,14.608000000000004L9.538,14.608000000000004M9.681000000000001,14.017000000000005L9.775,13.274000000000004" stroke="#333333" fill="#333333" style="opacity: 0.5;"></path><circle transform="matrix(10,0,0,10,10,10)" opacity="0.5" stroke-width="0.1" style="opacity: 0.5;" stroke="#333333" fill="#333333" r="0.1" cy="12.966000000000005" cx="9.771"></circle><circle transform="matrix(10,0,0,10,10,10)" opacity="0.5" stroke-width="0.1" style="opacity: 0.5;" stroke="#333333" fill="#333333" r="0.1" cy="12.638000000000005" cx="9.781"></circle><path transform="matrix(10,0,0,10,10,10)" opacity="0.5" stroke-width="0.1" d="M9.775,13.274000000000004L9.771,12.966000000000005M9.781,12.638000000000005L9.812000000000001,12.278000000000004" stroke="#333333" fill="#333333" style="opacity: 0.5;"></path><circle transform="matrix(10,0,0,10,10,10)" opacity="0.5" stroke-width="0.1" style="opacity: 0.5;" stroke="#333333" fill="#333333" r="0.1" cy="12.278000000000004" cx="9.812000000000001"></circle><circle transform="matrix(10,0,0,10,10,10)" opacity="0.5" stroke-width="0.1" style="opacity: 0.5;" stroke="#333333" fill="#333333" r="0.1" cy="11.852000000000004" cx="9.850000000000001"></circle><path transform="matrix(10,0,0,10,10,10)" opacity="0.5" stroke-width="0.1" d="M9.812000000000001,12.278000000000004L9.812000000000001,12.278000000000004M9.850000000000001,11.852000000000004L9.850000000000001,11.852000000000004" stroke="#333333" fill="#333333" style="opacity: 0.5;"></path><circle transform="matrix(10,0,0,10,10,10)" opacity="0.5" stroke-width="0.1" style="opacity: 0.5;" stroke="#333333" fill="#333333" r="0.1" cy="11.360000000000003" cx="9.829"></circle><circle transform="matrix(10,0,0,10,10,10)" opacity="0.5" stroke-width="0.1" style="opacity: 0.5;" stroke="#333333" fill="#333333" r="0.1" cy="10.913000000000004" cx="9.743000000000002"></circle><path transform="matrix(10,0,0,10,10,10)" opacity="0.5" stroke-width="0.1" d="M9.850000000000001,11.852000000000004L9.829,11.360000000000003M9.743000000000002,10.913000000000004L9.538000000000002,10.626000000000005" stroke="#333333" fill="#333333" style="opacity: 0.5;"></path><circle transform="matrix(10,0,0,10,10,10)" opacity="0.5" stroke-width="0.1" style="opacity: 0.5;" stroke="#333333" fill="#333333" r="0.1" cy="9.619" cx="8.818"></circle><circle transform="matrix(10,0,0,10,10,10)" opacity="0.5" stroke-width="0.1" style="opacity: 0.5;" stroke="#333333" fill="#333333" r="0.1" cy="8.947" cx="8.53"></circle><path transform="matrix(10,0,0,10,10,10)" opacity="0.5" stroke-width="0.1" d="M9.538000000000002,10.626000000000005L8.818,9.619M8.53,8.947L6.947,8.467" stroke="#333333" fill="#333333" style="opacity: 0.5;"></path><circle transform="matrix(10,0,0,10,10,10)" opacity="0.5" stroke-width="0.1" style="opacity: 0.5;" stroke="#333333" fill="#333333" r="0.1" cy="7.987" cx="5.364"></circle><circle transform="matrix(10,0,0,10,10,10)" opacity="0.5" stroke-width="0.1" style="opacity: 0.5;" stroke="#333333" fill="#333333" r="0.1" cy="8.082" cx="5.939"></circle><path transform="matrix(10,0,0,10,10,10)" opacity="0.5" stroke-width="0.1" d="M6.947,8.467L5.364,7.987M5.939,8.082L4.788,8.131" stroke="#333333" fill="#333333" style="opacity: 0.5;"></path><circle transform="matrix(10,0,0,10,10,10)" opacity="0.5" stroke-width="0.1" style="opacity: 0.5;" stroke="#333333" fill="#333333" r="0.1" cy="8.179" cx="3.636"></circle><circle transform="matrix(10,0,0,10,10,10)" opacity="0.5" stroke-width="0.1" style="opacity: 0.5;" stroke="#333333" fill="#333333" r="0.1" cy="8.802" cx="2.676"></circle><path transform="matrix(10,0,0,10,10,10)" opacity="0.5" stroke-width="0.1" d="M4.788,8.131L3.636,8.179M2.676,8.802L2.676,9.139" stroke="#333333" fill="#333333" style="opacity: 0.5;"></path><circle transform="matrix(10,0,0,10,10,10)" opacity="0.5" stroke-width="0.1" style="opacity: 0.5;" stroke="#333333" fill="#333333" r="0.1" cy="9.139" cx="2.676"></circle><circle transform="matrix(10,0,0,10,10,10)" opacity="0.5" stroke-width="0.1" style="opacity: 0.5;" stroke="#333333" fill="#333333" r="0.1" cy="9.187" cx="1.9560000000000002"></circle><path transform="matrix(10,0,0,10,10,10)" opacity="0.5" stroke-width="0.1" d="M2.676,9.139L2.676,9.139M1.9560000000000002,9.187L1.6680000000000001,9.475" stroke="#333333" fill="#333333" style="opacity: 0.5;"></path><circle transform="matrix(10,0,0,10,10,10)" opacity="0.5" stroke-width="0.1" style="opacity: 0.5;" stroke="#333333" fill="#333333" r="0.1" cy="9.746" cx="1.3970000000000002"></circle><circle transform="matrix(10,0,0,10,10,10)" opacity="0.5" stroke-width="0.1" style="opacity: 0.5;" stroke="#333333" fill="#333333" r="0.1" cy="10.937" cx="0.9630000000000002"></circle><path transform="matrix(10,0,0,10,10,10)" opacity="0.5" stroke-width="0.1" d="M1.6680000000000001,9.475L1.3970000000000002,9.746M0.9630000000000002,10.937L0.9110000000000001,11.36" stroke="#333333" fill="#333333" style="opacity: 0.5;"></path><circle transform="matrix(10,0,0,10,10,10)" opacity="0.5" stroke-width="0.1" style="opacity: 0.5;" stroke="#333333" fill="#333333" r="0.1" cy="11.36" cx="0.9110000000000001"></circle><circle transform="matrix(10,0,0,10,10,10)" opacity="0.5" stroke-width="0.1" style="opacity: 0.5;" stroke="#333333" fill="#333333" r="0.1" cy="11.641" cx="0.9110000000000001"></circle><path transform="matrix(10,0,0,10,10,10)" opacity="0.5" stroke-width="0.1" d="M0.9110000000000001,11.36L0.9110000000000001,11.36M0.9110000000000001,11.641L0.9110000000000001,11.641" stroke="#333333" fill="#333333" style="opacity: 0.5;"></path><circle transform="matrix(10,0,0,10,10,10)" opacity="0.5" stroke-width="0.1" style="opacity: 0.5;" stroke="#333333" fill="#333333" r="0.1" cy="12.294" cx="0.9580000000000002"></circle><circle transform="matrix(10,0,0,10,10,10)" opacity="0.5" stroke-width="0.1" style="opacity: 0.5;" stroke="#333333" fill="#333333" r="0.1" cy="14.09" cx="1.169"></circle><path transform="matrix(10,0,0,10,10,10)" opacity="0.5" stroke-width="0.1" d="M0.9110000000000001,11.641L0.9580000000000002,12.294M1.169,14.09L1.3800000000000001,14.513" stroke="#333333" fill="#333333" style="opacity: 0.5;"></path><circle transform="matrix(10,0,0,10,10,10)" opacity="0.5" stroke-width="0.1" style="opacity: 0.5;" stroke="#333333" fill="#333333" r="0.1" cy="14.513" cx="1.3800000000000001"></circle><circle transform="matrix(10,0,0,10,10,10)" opacity="0.5" stroke-width="0.1" style="opacity: 0.5;" stroke="#333333" fill="#333333" r="0.1" cy="14.609" cx="1.094"></circle><path transform="matrix(10,0,0,10,10,10)" opacity="0.5" stroke-width="0.1" d="M1.3800000000000001,14.513L1.3800000000000001,14.513M1.094,14.609L1.094,14.609" stroke="#333333" fill="#333333" style="opacity: 0.5;"></path><circle transform="matrix(10,0,0,10,10,10)" opacity="0.5" stroke-width="0.1" style="opacity: 0.5;" stroke="#333333" fill="#333333" r="0.1" cy="17.392" cx="0.8550000000000001"></circle><circle transform="matrix(10,0,0,10,10,10)" opacity="0.5" stroke-width="0.1" style="opacity: 0.5;" stroke="#333333" fill="#333333" r="0.1" cy="17.728" cx="2.053"></circle><path transform="matrix(10,0,0,10,10,10)" opacity="0.5" stroke-width="0.1" d="M1.094,14.609L0.8550000000000001,17.392M2.053,17.728L2.053,17.728" stroke="#333333" fill="#333333" style="opacity: 0.5;"></path><circle transform="matrix(10,0,0,10,10,10)" opacity="0.5" stroke-width="0.1" style="opacity: 0.5;" stroke="#333333" fill="#333333" r="0.1" cy="20.319000000000003" cx="2.485"></circle><circle transform="matrix(10,0,0,10,10,10)" opacity="0.5" stroke-width="0.1" style="opacity: 0.5;" stroke="#333333" fill="#333333" r="0.1" cy="19.216" cx="2.917"></circle><path transform="matrix(10,0,0,10,10,10)" opacity="0.5" stroke-width="0.1" d="M2.053,17.728L2.485,20.319000000000003M2.917,19.216L2.917,19.887" stroke="#333333" fill="#333333" style="opacity: 0.5;"></path><circle transform="matrix(10,0,0,10,10,10)" opacity="0.5" stroke-width="0.1" style="opacity: 0.5;" stroke="#333333" fill="#333333" r="0.1" cy="19.887" cx="2.917"></circle><circle transform="matrix(10,0,0,10,10,10)" opacity="0.5" stroke-width="0.1" style="opacity: 0.5;" stroke="#333333" fill="#333333" r="0.1" cy="20.319" cx="2.485"></circle><path transform="matrix(10,0,0,10,10,10)" opacity="0.5" stroke-width="0.1" d="M2.917,19.887L2.917,19.887M2.485,20.319L2.485,20.319" stroke="#333333" fill="#333333" style="opacity: 0.5;"></path><circle transform="matrix(10,0,0,10,10,10)" opacity="0.5" stroke-width="0.1" style="opacity: 0.5;" stroke="#333333" fill="#333333" r="0.1" cy="20.319" cx="2.485"></circle><circle transform="matrix(10,0,0,10,10,10)" opacity="0.5" stroke-width="0.1" style="opacity: 0.5;" stroke="#333333" fill="#333333" r="0.1" cy="21.375999999999998" cx="2.102"></circle><path transform="matrix(10,0,0,10,10,10)" opacity="0.5" stroke-width="0.1" d="M2.485,20.319L2.485,20.319M2.102,21.375999999999998L1.142,21.758" stroke="#333333" fill="#333333" style="opacity: 0.5;"></path><circle transform="matrix(10,0,0,10,10,10)" opacity="0.5" stroke-width="0.1" style="opacity: 0.5;" stroke="#333333" fill="#333333" r="0.1" cy="21.782" cx="1.081"></circle><circle transform="matrix(10,0,0,10,10,10)" opacity="0.5" stroke-width="0.1" style="opacity: 0.5;" stroke="#333333" fill="#333333" r="0.1" cy="21.814" cx="1.003"></circle><path transform="matrix(10,0,0,10,10,10)" opacity="0.5" stroke-width="0.1" d="M1.142,21.758L1.081,21.782M1.003,21.814L0.9099999999999999,21.849999999999998" stroke="#333333" fill="#333333" style="opacity: 0.5;"></path><circle transform="matrix(10,0,0,10,10,10)" opacity="0.5" stroke-width="0.1" style="opacity: 0.5;" stroke="#333333" fill="#333333" r="0.1" cy="21.849999999999998" cx="0.9099999999999999"></circle><circle transform="matrix(10,0,0,10,10,10)" opacity="0.5" stroke-width="0.1" style="opacity: 0.5;" stroke="#333333" fill="#333333" r="0.1" cy="27.083999999999996" cx="0.9099999999999999"></circle><path transform="matrix(10,0,0,10,10,10)" opacity="0.5" stroke-width="0.1" d="M0.9099999999999999,21.849999999999998L0.9099999999999999,21.849999999999998M0.9099999999999999,27.083999999999996L0.9099999999999999,27.083999999999996" stroke="#333333" fill="#333333" style="opacity: 0.5;"></path><circle transform="matrix(10,0,0,10,10,10)" opacity="0.5" stroke-width="0.1" style="opacity: 0.5;" stroke="#333333" fill="#333333" r="0.1" cy="27.083999999999996" cx="0.9099999999999999"></circle><circle transform="matrix(10,0,0,10,10,10)" opacity="0.5" stroke-width="0.1" style="opacity: 0.5;" stroke="#333333" fill="#333333" r="0.1" cy="27.083999999999996" cx="1.4849999999999999"></circle><path transform="matrix(10,0,0,10,10,10)" opacity="0.5" stroke-width="0.1" d="M0.9099999999999999,27.083999999999996L0.9099999999999999,27.083999999999996M1.4849999999999999,27.083999999999996L1.4849999999999999,27.083999999999996" stroke="#333333" fill="#333333" style="opacity: 0.5;"></path><circle transform="matrix(10,0,0,10,10,10)" opacity="0.5" stroke-width="0.1" style="opacity: 0.5;" stroke="#333333" fill="#333333" r="0.1" cy="25.805999999999997" cx="1.456"></circle><circle transform="matrix(10,0,0,10,10,10)" opacity="0.5" stroke-width="0.1" style="opacity: 0.5;" stroke="#333333" fill="#333333" r="0.1" cy="24.156999999999996" cx="1.5619999999999998"></circle><path transform="matrix(10,0,0,10,10,10)" opacity="0.5" stroke-width="0.1" d="M1.4849999999999999,27.083999999999996L1.456,25.805999999999997M1.5619999999999998,24.156999999999996L2.231,23.489999999999995" stroke="#333333" fill="#333333" style="opacity: 0.5;"></path><circle transform="matrix(10,0,0,10,10,10)" opacity="0.5" stroke-width="0.1" style="opacity: 0.5;" stroke="#333333" fill="#333333" r="0.1" cy="23.135" cx="2.587"></circle><circle transform="matrix(10,0,0,10,10,10)" opacity="0.5" stroke-width="0.1" style="opacity: 0.5;" stroke="#333333" fill="#333333" r="0.1" cy="22.551" cx="3.754"></circle><path transform="matrix(10,0,0,10,10,10)" opacity="0.5" stroke-width="0.1" d="M2.231,23.489999999999995L2.587,23.135M3.754,22.551L8.583,20.628" stroke="#333333" fill="#333333" style="opacity: 0.5;"></path><circle transform="matrix(10,0,0,10,10,10)" opacity="0.5" stroke-width="0.1" style="opacity: 0.5;" stroke="#333333" fill="#333333" r="0.1" cy="20.628" cx="8.583"></circle><circle transform="matrix(10,0,0,10,10,10)" opacity="0.5" stroke-width="0.1" style="opacity: 0.5;" stroke="#333333" fill="#333333" r="0.1" cy="20.628" cx="8.583"></circle><path transform="matrix(10,0,0,10,10,10)" opacity="0.5" stroke-width="0.1" d="M8.583,20.628L8.583,20.628M8.583,20.628L8.583,20.628" stroke="#333333" fill="#333333" style="opacity: 0.5;"></path><circle transform="matrix(10,0,0,10,10,10)" opacity="0.5" stroke-width="0.1" style="opacity: 0.5;" stroke="#333333" fill="#333333" r="0.1" cy="11.193999999999999" cx="30.873"></circle><circle transform="matrix(10,0,0,10,10,10)" opacity="0.5" stroke-width="0.1" style="opacity: 0.5;" stroke="#333333" fill="#333333" r="0.1" cy="10.857" cx="30.786"></circle><path transform="matrix(10,0,0,10,10,10)" opacity="0.5" stroke-width="0.1" d="M30.913,11.572L30.873,11.193999999999999M30.786,10.857L30.621,10.626" stroke="#333333" fill="#333333" style="opacity: 0.5;"></path><circle transform="matrix(10,0,0,10,10,10)" opacity="0.5" stroke-width="0.1" style="opacity: 0.5;" stroke="#333333" fill="#333333" r="0.1" cy="9.617999999999999" cx="29.901999999999997"></circle><circle transform="matrix(10,0,0,10,10,10)" opacity="0.5" stroke-width="0.1" style="opacity: 0.5;" stroke="#333333" fill="#333333" r="0.1" cy="8.947" cx="29.613"></circle><path transform="matrix(10,0,0,10,10,10)" opacity="0.5" stroke-width="0.1" d="M30.621,10.626L29.901999999999997,9.617999999999999M29.613,8.947L28.031,8.466999999999999" stroke="#333333" fill="#333333" style="opacity: 0.5;"></path><circle transform="matrix(10,0,0,10,10,10)" opacity="0.5" stroke-width="0.1" style="opacity: 0.5;" stroke="#333333" fill="#333333" r="0.1" cy="7.986999999999998" cx="26.447"></circle><circle transform="matrix(10,0,0,10,10,10)" opacity="0.5" stroke-width="0.1" style="opacity: 0.5;" stroke="#333333" fill="#333333" r="0.1" cy="8.081999999999999" cx="27.023"></circle><path transform="matrix(10,0,0,10,10,10)" opacity="0.5" stroke-width="0.1" d="M28.031,8.466999999999999L26.447,7.986999999999998M27.023,8.081999999999999L25.871,8.130999999999998" stroke="#333333" fill="#333333" style="opacity: 0.5;"></path><circle transform="matrix(10,0,0,10,10,10)" opacity="0.5" stroke-width="0.1" style="opacity: 0.5;" stroke="#333333" fill="#333333" r="0.1" cy="8.179" cx="24.72"></circle><circle transform="matrix(10,0,0,10,10,10)" opacity="0.5" stroke-width="0.1" style="opacity: 0.5;" stroke="#333333" fill="#333333" r="0.1" cy="8.802" cx="23.76"></circle><path transform="matrix(10,0,0,10,10,10)" opacity="0.5" stroke-width="0.1" d="M25.871,8.130999999999998L24.72,8.179M23.76,8.802L23.76,9.139" stroke="#333333" fill="#333333" style="opacity: 0.5;"></path><circle transform="matrix(10,0,0,10,10,10)" opacity="0.5" stroke-width="0.1" style="opacity: 0.5;" stroke="#333333" fill="#333333" r="0.1" cy="9.139" cx="23.76"></circle><circle transform="matrix(10,0,0,10,10,10)" opacity="0.5" stroke-width="0.1" style="opacity: 0.5;" stroke="#333333" fill="#333333" r="0.1" cy="9.187" cx="23.041"></circle><path transform="matrix(10,0,0,10,10,10)" opacity="0.5" stroke-width="0.1" d="M23.76,9.139L23.76,9.139M23.041,9.187L22.752000000000002,9.475" stroke="#333333" fill="#333333" style="opacity: 0.5;"></path><circle transform="matrix(10,0,0,10,10,10)" opacity="0.5" stroke-width="0.1" style="opacity: 0.5;" stroke="#333333" fill="#333333" r="0.1" cy="9.747" cx="22.481"></circle><circle transform="matrix(10,0,0,10,10,10)" opacity="0.5" stroke-width="0.1" style="opacity: 0.5;" stroke="#333333" fill="#333333" r="0.1" cy="10.947" cx="22.043000000000003"></circle><path transform="matrix(10,0,0,10,10,10)" opacity="0.5" stroke-width="0.1" d="M22.752000000000002,9.475L22.481,9.747M22.043000000000003,10.947L21.994000000000003,11.366" stroke="#333333" fill="#333333" style="opacity: 0.5;"></path><circle transform="matrix(10,0,0,10,10,10)" opacity="0.5" stroke-width="0.1" style="opacity: 0.5;" stroke="#333333" fill="#333333" r="0.1" cy="11.366" cx="21.994000000000003"></circle><circle transform="matrix(10,0,0,10,10,10)" opacity="0.5" stroke-width="0.1" style="opacity: 0.5;" stroke="#333333" fill="#333333" r="0.1" cy="11.366" cx="22.027000000000005"></circle><path transform="matrix(10,0,0,10,10,10)" opacity="0.5" stroke-width="0.1" d="M21.994000000000003,11.366L21.994000000000003,11.366M22.027000000000005,11.366L22.027000000000005,11.366" stroke="#333333" fill="#333333" style="opacity: 0.5;"></path><circle transform="matrix(10,0,0,10,10,10)" opacity="0.5" stroke-width="0.1" style="opacity: 0.5;" stroke="#333333" fill="#333333" r="0.1" cy="11.366" cx="22.027000000000005"></circle><circle transform="matrix(10,0,0,10,10,10)" opacity="0.5" stroke-width="0.1" style="opacity: 0.5;" stroke="#333333" fill="#333333" r="0.1" cy="12.279" cx="22.107000000000003"></circle><path transform="matrix(10,0,0,10,10,10)" opacity="0.5" stroke-width="0.1" d="M22.027000000000005,11.366L22.027000000000005,11.366M22.107000000000003,12.279L22.107000000000003,12.279" stroke="#333333" fill="#333333" style="opacity: 0.5;"></path><circle transform="matrix(10,0,0,10,10,10)" opacity="0.5" stroke-width="0.1" style="opacity: 0.5;" stroke="#333333" fill="#333333" r="0.1" cy="12.51" cx="22.127000000000002"></circle><circle transform="matrix(10,0,0,10,10,10)" opacity="0.5" stroke-width="0.1" style="opacity: 0.5;" stroke="#333333" fill="#333333" r="0.1" cy="12.715" cx="22.129"></circle><path transform="matrix(10,0,0,10,10,10)" opacity="0.5" stroke-width="0.1" d="M22.107000000000003,12.279L22.127000000000002,12.51M22.129,12.715L22.134000000000004,12.924" stroke="#333333" fill="#333333" style="opacity: 0.5;"></path><circle transform="matrix(10,0,0,10,10,10)" opacity="0.5" stroke-width="0.1" style="opacity: 0.5;" stroke="#333333" fill="#333333" r="0.1" cy="13.59" cx="22.224000000000004"></circle><circle transform="matrix(10,0,0,10,10,10)" opacity="0.5" stroke-width="0.1" style="opacity: 0.5;" stroke="#333333" fill="#333333" r="0.1" cy="14.274" cx="22.344000000000005"></circle><path transform="matrix(10,0,0,10,10,10)" opacity="0.5" stroke-width="0.1" d="M22.134000000000004,12.924L22.224000000000004,13.59M22.344000000000005,14.274L22.464000000000002,14.513" stroke="#333333" fill="#333333" style="opacity: 0.5;"></path><circle transform="matrix(10,0,0,10,10,10)" opacity="0.5" stroke-width="0.1" style="opacity: 0.5;" stroke="#333333" fill="#333333" r="0.1" cy="14.513" cx="22.464000000000002"></circle><circle transform="matrix(10,0,0,10,10,10)" opacity="0.5" stroke-width="0.1" style="opacity: 0.5;" stroke="#333333" fill="#333333" r="0.1" cy="14.609" cx="22.178"></circle><path transform="matrix(10,0,0,10,10,10)" opacity="0.5" stroke-width="0.1" d="M22.464000000000002,14.513L22.464000000000002,14.513M22.178,14.609L22.178,14.609" stroke="#333333" fill="#333333" style="opacity: 0.5;"></path><circle transform="matrix(10,0,0,10,10,10)" opacity="0.5" stroke-width="0.1" style="opacity: 0.5;" stroke="#333333" fill="#333333" r="0.1" cy="17.392" cx="21.939"></circle><circle transform="matrix(10,0,0,10,10,10)" opacity="0.5" stroke-width="0.1" style="opacity: 0.5;" stroke="#333333" fill="#333333" r="0.1" cy="17.728" cx="23.138"></circle><path transform="matrix(10,0,0,10,10,10)" opacity="0.5" stroke-width="0.1" d="M22.178,14.609L21.939,17.392M23.138,17.728L23.138,17.728" stroke="#333333" fill="#333333" style="opacity: 0.5;"></path><circle transform="matrix(10,0,0,10,10,10)" opacity="0.5" stroke-width="0.1" style="opacity: 0.5;" stroke="#333333" fill="#333333" r="0.1" cy="20.319000000000003" cx="23.57"></circle><circle transform="matrix(10,0,0,10,10,10)" opacity="0.5" stroke-width="0.1" style="opacity: 0.5;" stroke="#333333" fill="#333333" r="0.1" cy="19.216" cx="24.001"></circle><path transform="matrix(10,0,0,10,10,10)" opacity="0.5" stroke-width="0.1" d="M23.138,17.728L23.57,20.319000000000003M24.001,19.216L24.001,19.887" stroke="#333333" fill="#333333" style="opacity: 0.5;"></path><circle transform="matrix(10,0,0,10,10,10)" opacity="0.5" stroke-width="0.1" style="opacity: 0.5;" stroke="#333333" fill="#333333" r="0.1" cy="19.887" cx="24.001"></circle><circle transform="matrix(10,0,0,10,10,10)" opacity="0.5" stroke-width="0.1" style="opacity: 0.5;" stroke="#333333" fill="#333333" r="0.1" cy="20.319" cx="23.569000000000003"></circle><path transform="matrix(10,0,0,10,10,10)" opacity="0.5" stroke-width="0.1" d="M24.001,19.887L24.001,19.887M23.569000000000003,20.319L23.569000000000003,20.319" stroke="#333333" fill="#333333" style="opacity: 0.5;"></path><circle transform="matrix(10,0,0,10,10,10)" opacity="0.5" stroke-width="0.1" style="opacity: 0.5;" stroke="#333333" fill="#333333" r="0.1" cy="20.319" cx="23.569000000000003"></circle><circle transform="matrix(10,0,0,10,10,10)" opacity="0.5" stroke-width="0.1" style="opacity: 0.5;" stroke="#333333" fill="#333333" r="0.1" cy="20.461" cx="23.516000000000002"></circle><path transform="matrix(10,0,0,10,10,10)" opacity="0.5" stroke-width="0.1" d="M23.569000000000003,20.319L23.569000000000003,20.319M23.516000000000002,20.461L23.406000000000002,20.657" stroke="#333333" fill="#333333" style="opacity: 0.5;"></path><circle transform="matrix(10,0,0,10,10,10)" opacity="0.5" stroke-width="0.1" style="opacity: 0.5;" stroke="#333333" fill="#333333" r="0.1" cy="22.557" cx="28.176000000000002"></circle><circle transform="matrix(10,0,0,10,10,10)" opacity="0.5" stroke-width="0.1" style="opacity: 0.5;" stroke="#333333" fill="#333333" r="0.1" cy="23.137" cx="29.333000000000002"></circle><path transform="matrix(10,0,0,10,10,10)" opacity="0.5" stroke-width="0.1" d="M23.406000000000002,20.657L28.176000000000002,22.557M29.333000000000002,23.137L29.685000000000002,23.491" stroke="#333333" fill="#333333" style="opacity: 0.5;"></path><circle transform="matrix(10,0,0,10,10,10)" opacity="0.5" stroke-width="0.1" style="opacity: 0.5;" stroke="#333333" fill="#333333" r="0.1" cy="24.158" cx="30.355000000000004"></circle><circle transform="matrix(10,0,0,10,10,10)" opacity="0.5" stroke-width="0.1" style="opacity: 0.5;" stroke="#333333" fill="#333333" r="0.1" cy="25.806" cx="30.46"></circle><path transform="matrix(10,0,0,10,10,10)" opacity="0.5" stroke-width="0.1" d="M29.685000000000002,23.491L30.355000000000004,24.158M30.46,25.806L30.431,27.085" stroke="#333333" fill="#333333" style="opacity: 0.5;"></path><circle transform="matrix(10,0,0,10,10,10)" opacity="0.5" stroke-width="0.1" style="opacity: 0.5;" stroke="#333333" fill="#333333" r="0.1" cy="27.085" cx="30.431"></circle><circle transform="matrix(10,0,0,10,10,10)" opacity="0.5" stroke-width="0.1" style="opacity: 0.5;" stroke="#333333" fill="#333333" r="0.1" cy="27.085" cx="30.911"></circle><path transform="matrix(10,0,0,10,10,10)" opacity="0.5" stroke-width="0.1" d="M30.431,27.085L30.431,27.085M30.911,27.085L30.911,27.085" stroke="#333333" fill="#333333" style="opacity: 0.5;"></path><circle transform="matrix(10,0,0,10,10,10)" opacity="0.5" stroke-width="0.1" style="opacity: 0.5;" stroke="#333333" fill="#333333" r="0.1" cy="27.085" cx="30.911"></circle><circle transform="matrix(10,0,0,10,10,10)" opacity="0.5" stroke-width="0.1" style="opacity: 0.5;" stroke="#333333" fill="#333333" r="0.1" cy="21.779" cx="30.911"></circle><path transform="matrix(10,0,0,10,10,10)" opacity="0.5" stroke-width="0.1" d="M30.911,27.085L30.911,27.085M30.911,21.779L30.911,21.779" stroke="#333333" fill="#333333" style="opacity: 0.5;"></path><circle transform="matrix(10,0,0,10,10,10)" opacity="0.5" stroke-width="0.1" style="opacity: 0.5;" stroke="#333333" fill="#333333" r="0.1" cy="21.773" cx="30.895000000000003"></circle><circle transform="matrix(10,0,0,10,10,10)" opacity="0.5" stroke-width="0.1" style="opacity: 0.5;" stroke="#333333" fill="#333333" r="0.1" cy="21.764" cx="30.873"></circle><path transform="matrix(10,0,0,10,10,10)" opacity="0.5" stroke-width="0.1" d="M30.911,21.779L30.895000000000003,21.773M30.873,21.764L30.859,21.758" stroke="#333333" fill="#333333" style="opacity: 0.5;"></path><circle transform="matrix(10,0,0,10,10,10)" opacity="0.5" stroke-width="0.1" style="opacity: 0.5;" stroke="#333333" fill="#333333" r="0.1" cy="21.375" cx="29.900000000000002"></circle><circle transform="matrix(10,0,0,10,10,10)" opacity="0.5" stroke-width="0.1" style="opacity: 0.5;" stroke="#333333" fill="#333333" r="0.1" cy="20.319" cx="29.516000000000002"></circle><path transform="matrix(10,0,0,10,10,10)" opacity="0.5" stroke-width="0.1" d="M30.859,21.758L29.900000000000002,21.375M29.516000000000002,20.319L29.516000000000002,20.319" stroke="#333333" fill="#333333" style="opacity: 0.5;"></path><circle transform="matrix(10,0,0,10,10,10)" opacity="0.5" stroke-width="0.1" style="opacity: 0.5;" stroke="#333333" fill="#333333" r="0.1" cy="20.319" cx="29.516000000000002"></circle><circle transform="matrix(10,0,0,10,10,10)" opacity="0.5" stroke-width="0.1" style="opacity: 0.5;" stroke="#333333" fill="#333333" r="0.1" cy="20.558" cx="29.083000000000002"></circle><path transform="matrix(10,0,0,10,10,10)" opacity="0.5" stroke-width="0.1" d="M29.516000000000002,20.319L29.516000000000002,20.319M29.083000000000002,20.558L29.083000000000002,19.887" stroke="#333333" fill="#333333" style="opacity: 0.5;"></path><circle transform="matrix(10,0,0,10,10,10)" opacity="0.5" stroke-width="0.1" style="opacity: 0.5;" stroke="#333333" fill="#333333" r="0.1" cy="19.887" cx="29.083000000000002"></circle><circle transform="matrix(10,0,0,10,10,10)" opacity="0.5" stroke-width="0.1" style="opacity: 0.5;" stroke="#333333" fill="#333333" r="0.1" cy="20.319" cx="29.516000000000002"></circle><path transform="matrix(10,0,0,10,10,10)" opacity="0.5" stroke-width="0.1" d="M29.083000000000002,19.887L29.083000000000002,19.887M29.516000000000002,20.319L29.947000000000003,17.728" stroke="#333333" fill="#333333" style="opacity: 0.5;"></path><circle transform="matrix(10,0,0,10,10,10)" opacity="0.5" stroke-width="0.1" style="opacity: 0.5;" stroke="#333333" fill="#333333" r="0.1" cy="17.728" cx="29.947000000000003"></circle><circle transform="matrix(10,0,0,10,10,10)" opacity="0.5" stroke-width="0.1" style="opacity: 0.5;" stroke="#333333" fill="#333333" r="0.1" cy="17.499000000000002" cx="30.751"></circle><path transform="matrix(10,0,0,10,10,10)" opacity="0.5" stroke-width="0.1" d="M29.947000000000003,17.728L29.947000000000003,17.728M30.751,17.499000000000002L30.910000000000004,15.887000000000002" stroke="#333333" fill="#333333" style="opacity: 0.5;"></path><circle transform="matrix(10,0,0,10,10,10)" opacity="0.5" stroke-width="0.1" style="opacity: 0.5;" stroke="#333333" fill="#333333" r="0.1" cy="15.887000000000002" cx="30.910000000000004"></circle><circle transform="matrix(10,0,0,10,10,10)" opacity="0.5" stroke-width="0.1" style="opacity: 0.5;" stroke="#333333" fill="#333333" r="0.1" cy="14.660000000000002" cx="30.910000000000004"></circle><path transform="matrix(10,0,0,10,10,10)" opacity="0.5" stroke-width="0.1" d="M30.910000000000004,15.887000000000002L30.910000000000004,15.887000000000002M30.910000000000004,14.660000000000002L30.910000000000004,14.660000000000002" stroke="#333333" fill="#333333" style="opacity: 0.5;"></path><circle transform="matrix(10,0,0,10,10,10)" opacity="0.5" stroke-width="0.1" style="opacity: 0.5;" stroke="#333333" fill="#333333" r="0.1" cy="14.642000000000001" cx="30.909000000000002"></circle><circle transform="matrix(10,0,0,10,10,10)" opacity="0.5" stroke-width="0.1" style="opacity: 0.5;" stroke="#333333" fill="#333333" r="0.1" cy="14.627000000000002" cx="30.909000000000002"></circle><path transform="matrix(10,0,0,10,10,10)" opacity="0.5" stroke-width="0.1" d="M30.910000000000004,14.660000000000002L30.909000000000002,14.642000000000001M30.909000000000002,14.627000000000002L30.907000000000004,14.609000000000002" stroke="#333333" fill="#333333" style="opacity: 0.5;"></path><circle transform="matrix(10,0,0,10,10,10)" opacity="0.5" stroke-width="0.1" style="opacity: 0.5;" stroke="#333333" fill="#333333" r="0.1" cy="14.609000000000002" cx="30.907000000000004"></circle><circle transform="matrix(10,0,0,10,10,10)" opacity="0.5" stroke-width="0.1" style="opacity: 0.5;" stroke="#333333" fill="#333333" r="0.1" cy="14.609000000000002" cx="30.618000000000002"></circle><path transform="matrix(10,0,0,10,10,10)" opacity="0.5" stroke-width="0.1" d="M30.907000000000004,14.609000000000002L30.907000000000004,14.609000000000002M30.618000000000002,14.609000000000002L30.618000000000002,14.609000000000002" stroke="#333333" fill="#333333" style="opacity: 0.5;"></path><circle transform="matrix(10,0,0,10,10,10)" opacity="0.5" stroke-width="0.1" style="opacity: 0.5;" stroke="#333333" fill="#333333" r="0.1" cy="14.609000000000002" cx="30.618000000000002"></circle><circle transform="matrix(10,0,0,10,10,10)" opacity="0.5" stroke-width="0.1" style="opacity: 0.5;" stroke="#333333" fill="#333333" r="0.1" cy="13.719000000000001" cx="30.833000000000002"></circle><path transform="matrix(10,0,0,10,10,10)" opacity="0.5" stroke-width="0.1" d="M30.618000000000002,14.609000000000002L30.618000000000002,14.609000000000002M30.833000000000002,13.719000000000001L30.910000000000004,12.748000000000001" stroke="#333333" fill="#333333" style="opacity: 0.5;"></path><circle transform="matrix(10,0,0,10,10,10)" opacity="0.5" stroke-width="0.1" style="opacity: 0.5;" stroke="#333333" fill="#333333" r="0.1" cy="12.748000000000001" cx="30.910000000000004"></circle><circle transform="matrix(10,0,0,10,10,10)" opacity="0.5" stroke-width="0.1" style="opacity: 0.5;" stroke="#333333" fill="#333333" r="0.1" cy="11.572" cx="30.910000000000004"></circle><path transform="matrix(10,0,0,10,10,10)" opacity="0.5" stroke-width="0.1" d="M30.910000000000004,12.748000000000001L30.910000000000004,12.748000000000001M30.910000000000004,11.572L30.910000000000004,11.572" stroke="#333333" fill="#333333" style="opacity: 0.5;"></path><circle transform="matrix(10,0,0,10,10,10)" opacity="0.5" stroke-width="0.1" style="opacity: 0.5;" stroke="#333333" fill="#333333" r="0.1" cy="11.572" cx="30.910000000000004"></circle><circle transform="matrix(10,0,0,10,10,10)" opacity="0.5" stroke-width="0.1" style="opacity: 0.5;" stroke="#333333" fill="#333333" r="0.1" cy="11.572" cx="30.913"></circle><path transform="matrix(10,0,0,10,10,10)" opacity="0.5" stroke-width="0.1" d="M30.910000000000004,11.572L30.910000000000004,11.572M30.913,11.572L30.913,11.572" stroke="#333333" fill="#333333" style="opacity: 0.5;"></path><circle transform="matrix(10,0,0,10,10,10)" stroke-width="0.1" style="" stroke="#333333" fill="#aaaaaa" r="0.15" cy="20.8" cx="21.053"></circle><circle transform="matrix(10,0,0,10,10,10)" stroke-width="0.1" style="" stroke="#333333" fill="#aaaaaa" r="0.15" cy="19.102" cx="19.469"></circle><circle transform="matrix(10,0,0,10,10,10)" stroke-width="0.1" style="" stroke="#333333" fill="#aaaaaa" r="0.15" cy="18.592" cx="18.959"></circle><circle transform="matrix(10,0,0,10,10,10)" stroke-width="0.1" style="" stroke="#333333" fill="#aaaaaa" r="0.15" cy="16.043999999999997" cx="19.979"></circle><circle transform="matrix(10,0,0,10,10,10)" stroke-width="0.1" style="" stroke="#333333" fill="#aaaaaa" r="0.15" cy="12.363999999999997" cx="21.111"></circle><circle transform="matrix(10,0,0,10,10,10)" stroke-width="0.1" style="" stroke="#333333" fill="#aaaaaa" r="0.15" cy="12.363999999999997" cx="20.771"></circle><circle transform="matrix(10,0,0,10,10,10)" stroke-width="0.1" style="" stroke="#333333" fill="#aaaaaa" r="0.15" cy="7.664999999999997" cx="20.771"></circle><circle transform="matrix(10,0,0,10,10,10)" stroke-width="0.1" style="" stroke="#333333" fill="#aaaaaa" r="0.15" cy="5.116999999999997" cx="17.713"></circle><circle transform="matrix(10,0,0,10,10,10)" stroke-width="0.1" style="" stroke="#333333" fill="#aaaaaa" r="0.15" cy="4.720999999999997" cx="15.166"></circle><circle transform="matrix(10,0,0,10,10,10)" stroke-width="0.1" style="" stroke="#333333" fill="#aaaaaa" r="0.15" cy="5.908999999999997" cx="12.674"></circle><circle transform="matrix(10,0,0,10,10,10)" stroke-width="0.1" style="" stroke="#333333" fill="#aaaaaa" r="0.15" cy="6.305999999999997" cx="11.485999999999999"></circle><circle transform="matrix(10,0,0,10,10,10)" stroke-width="0.1" style="" stroke="#333333" fill="#aaaaaa" r="0.15" cy="8.626999999999997" cx="10.579999999999998"></circle><circle transform="matrix(10,0,0,10,10,10)" stroke-width="0.1" style="" stroke="#333333" fill="#aaaaaa" r="0.15" cy="12.250999999999998" cx="11.145999999999999"></circle><circle transform="matrix(10,0,0,10,10,10)" stroke-width="0.1" style="" stroke="#333333" fill="#aaaaaa" r="0.15" cy="12.363999999999997" cx="10.809"></circle><circle transform="matrix(10,0,0,10,10,10)" stroke-width="0.1" style="" stroke="#333333" fill="#aaaaaa" r="0.15" cy="16.043999999999997" cx="11.940999999999999"></circle><circle transform="matrix(10,0,0,10,10,10)" stroke-width="0.1" style="" stroke="#333333" fill="#aaaaaa" r="0.15" cy="18.592" cx="12.959999999999999"></circle><circle transform="matrix(10,0,0,10,10,10)" stroke-width="0.1" style="" stroke="#333333" fill="#aaaaaa" r="0.15" cy="19.102" cx="12.45"></circle><circle transform="matrix(10,0,0,10,10,10)" stroke-width="0.1" style="" stroke="#333333" fill="#aaaaaa" r="0.15" cy="20.8" cx="10.866"></circle><circle transform="matrix(10,0,0,10,10,10)" stroke-width="0.1" style="" stroke="#333333" fill="#aaaaaa" r="0.15" cy="24.196" cx="2.939"></circle><circle transform="matrix(10,0,0,10,10,10)" stroke-width="0.1" style="" stroke="#333333" fill="#aaaaaa" r="0.15" cy="27.084000000000003" cx="2.486"></circle><circle transform="matrix(10,0,0,10,10,10)" stroke-width="0.1" style="" stroke="#333333" fill="#aaaaaa" r="0.15" cy="27.084000000000003" cx="29.433"></circle><circle transform="matrix(10,0,0,10,10,10)" stroke-width="0.1" style="" stroke="#333333" fill="#aaaaaa" r="0.15" cy="24.196000000000005" cx="28.980999999999998"></circle><circle transform="matrix(10,0,0,10,10,10)" stroke-width="0.1" style="" stroke="#333333" fill="#aaaaaa" r="0.15" cy="20.8" cx="21.053"></circle><circle transform="matrix(10,0,0,10,10,10)" stroke-width="0.1" style="" stroke="#333333" fill="#aaaaaa" r="0.15" cy="20.8" cx="21.053"></circle><circle transform="matrix(10,0,0,10,10,10)" stroke-width="0.1" style="" stroke="#333333" fill="#aaaaaa" r="0.15" cy="20.628" cx="8.583"></circle><circle transform="matrix(10,0,0,10,10,10)" stroke-width="0.1" style="" stroke="#333333" fill="#aaaaaa" r="0.15" cy="20.318" cx="8.435"></circle><circle transform="matrix(10,0,0,10,10,10)" stroke-width="0.1" style="" stroke="#333333" fill="#aaaaaa" r="0.15" cy="19.886000000000003" cx="8.003"></circle><circle transform="matrix(10,0,0,10,10,10)" stroke-width="0.1" style="" stroke="#333333" fill="#aaaaaa" r="0.15" cy="17.727000000000004" cx="8.867"></circle><circle transform="matrix(10,0,0,10,10,10)" stroke-width="0.1" style="" stroke="#333333" fill="#aaaaaa" r="0.15" cy="14.608000000000004" cx="9.826"></circle><circle transform="matrix(10,0,0,10,10,10)" stroke-width="0.1" style="" stroke="#333333" fill="#aaaaaa" r="0.15" cy="14.608000000000004" cx="9.538"></circle><circle transform="matrix(10,0,0,10,10,10)" stroke-width="0.1" style="" stroke="#333333" fill="#aaaaaa" r="0.15" cy="13.274000000000004" cx="9.775"></circle><circle transform="matrix(10,0,0,10,10,10)" stroke-width="0.1" style="" stroke="#333333" fill="#aaaaaa" r="0.15" cy="12.278000000000004" cx="9.812000000000001"></circle><circle transform="matrix(10,0,0,10,10,10)" stroke-width="0.1" style="" stroke="#333333" fill="#aaaaaa" r="0.15" cy="11.852000000000004" cx="9.850000000000001"></circle><circle transform="matrix(10,0,0,10,10,10)" stroke-width="0.1" style="" stroke="#333333" fill="#aaaaaa" r="0.15" cy="10.626000000000005" cx="9.538000000000002"></circle><circle transform="matrix(10,0,0,10,10,10)" stroke-width="0.1" style="" stroke="#333333" fill="#aaaaaa" r="0.15" cy="8.467" cx="6.947"></circle><circle transform="matrix(10,0,0,10,10,10)" stroke-width="0.1" style="" stroke="#333333" fill="#aaaaaa" r="0.15" cy="8.131" cx="4.788"></circle><circle transform="matrix(10,0,0,10,10,10)" stroke-width="0.1" style="" stroke="#333333" fill="#aaaaaa" r="0.15" cy="9.139" cx="2.676"></circle><circle transform="matrix(10,0,0,10,10,10)" stroke-width="0.1" style="" stroke="#333333" fill="#aaaaaa" r="0.15" cy="9.475" cx="1.6680000000000001"></circle><circle transform="matrix(10,0,0,10,10,10)" stroke-width="0.1" style="" stroke="#333333" fill="#aaaaaa" r="0.15" cy="11.36" cx="0.9110000000000001"></circle><circle transform="matrix(10,0,0,10,10,10)" stroke-width="0.1" style="" stroke="#333333" fill="#aaaaaa" r="0.15" cy="11.641" cx="0.9110000000000001"></circle><circle transform="matrix(10,0,0,10,10,10)" stroke-width="0.1" style="" stroke="#333333" fill="#aaaaaa" r="0.15" cy="14.513" cx="1.3800000000000001"></circle><circle transform="matrix(10,0,0,10,10,10)" stroke-width="0.1" style="" stroke="#333333" fill="#aaaaaa" r="0.15" cy="14.609" cx="1.094"></circle><circle transform="matrix(10,0,0,10,10,10)" stroke-width="0.1" style="" stroke="#333333" fill="#aaaaaa" r="0.15" cy="17.728" cx="2.053"></circle><circle transform="matrix(10,0,0,10,10,10)" stroke-width="0.1" style="" stroke="#333333" fill="#aaaaaa" r="0.15" cy="19.887" cx="2.917"></circle><circle transform="matrix(10,0,0,10,10,10)" stroke-width="0.1" style="" stroke="#333333" fill="#aaaaaa" r="0.15" cy="20.319" cx="2.485"></circle><circle transform="matrix(10,0,0,10,10,10)" stroke-width="0.1" style="" stroke="#333333" fill="#aaaaaa" r="0.15" cy="21.758" cx="1.142"></circle><circle transform="matrix(10,0,0,10,10,10)" stroke-width="0.1" style="" stroke="#333333" fill="#aaaaaa" r="0.15" cy="21.849999999999998" cx="0.9099999999999999"></circle><circle transform="matrix(10,0,0,10,10,10)" stroke-width="0.1" style="" stroke="#333333" fill="#aaaaaa" r="0.15" cy="27.083999999999996" cx="0.9099999999999999"></circle><circle transform="matrix(10,0,0,10,10,10)" stroke-width="0.1" style="" stroke="#333333" fill="#aaaaaa" r="0.15" cy="27.083999999999996" cx="1.4849999999999999"></circle><circle transform="matrix(10,0,0,10,10,10)" stroke-width="0.1" style="" stroke="#333333" fill="#aaaaaa" r="0.15" cy="23.489999999999995" cx="2.231"></circle><circle transform="matrix(10,0,0,10,10,10)" stroke-width="0.1" style="" stroke="#333333" fill="#aaaaaa" r="0.15" cy="20.628" cx="8.583"></circle><circle transform="matrix(10,0,0,10,10,10)" stroke-width="0.1" style="" stroke="#333333" fill="#aaaaaa" r="0.15" cy="20.628" cx="8.583"></circle><circle transform="matrix(10,0,0,10,10,10)" stroke-width="0.1" style="" stroke="#333333" fill="#aaaaaa" r="0.15" cy="11.572" cx="30.913"></circle><circle transform="matrix(10,0,0,10,10,10)" stroke-width="0.1" style="" stroke="#333333" fill="#aaaaaa" r="0.15" cy="10.626" cx="30.621"></circle><circle transform="matrix(10,0,0,10,10,10)" stroke-width="0.1" style="" stroke="#333333" fill="#aaaaaa" r="0.15" cy="8.466999999999999" cx="28.031"></circle><circle transform="matrix(10,0,0,10,10,10)" stroke-width="0.1" style="" stroke="#333333" fill="#aaaaaa" r="0.15" cy="8.130999999999998" cx="25.871"></circle><circle transform="matrix(10,0,0,10,10,10)" stroke-width="0.1" style="" stroke="#333333" fill="#aaaaaa" r="0.15" cy="9.139" cx="23.76"></circle><circle transform="matrix(10,0,0,10,10,10)" stroke-width="0.1" style="" stroke="#333333" fill="#aaaaaa" r="0.15" cy="9.475" cx="22.752000000000002"></circle><circle transform="matrix(10,0,0,10,10,10)" stroke-width="0.1" style="" stroke="#333333" fill="#aaaaaa" r="0.15" cy="11.366" cx="21.994000000000003"></circle><circle transform="matrix(10,0,0,10,10,10)" stroke-width="0.1" style="" stroke="#333333" fill="#aaaaaa" r="0.15" cy="11.366" cx="22.027000000000005"></circle><circle transform="matrix(10,0,0,10,10,10)" stroke-width="0.1" style="" stroke="#333333" fill="#aaaaaa" r="0.15" cy="12.279" cx="22.107000000000003"></circle><circle transform="matrix(10,0,0,10,10,10)" stroke-width="0.1" style="" stroke="#333333" fill="#aaaaaa" r="0.15" cy="12.924" cx="22.134000000000004"></circle><circle transform="matrix(10,0,0,10,10,10)" stroke-width="0.1" style="" stroke="#333333" fill="#aaaaaa" r="0.15" cy="14.513" cx="22.464000000000002"></circle><circle transform="matrix(10,0,0,10,10,10)" stroke-width="0.1" style="" stroke="#333333" fill="#aaaaaa" r="0.15" cy="14.609" cx="22.178"></circle><circle transform="matrix(10,0,0,10,10,10)" stroke-width="0.1" style="" stroke="#333333" fill="#aaaaaa" r="0.15" cy="17.728" cx="23.138"></circle><circle transform="matrix(10,0,0,10,10,10)" stroke-width="0.1" style="" stroke="#333333" fill="#aaaaaa" r="0.15" cy="19.887" cx="24.001"></circle><circle transform="matrix(10,0,0,10,10,10)" stroke-width="0.1" style="" stroke="#333333" fill="#aaaaaa" r="0.15" cy="20.319" cx="23.569000000000003"></circle><circle transform="matrix(10,0,0,10,10,10)" stroke-width="0.1" style="" stroke="#333333" fill="#aaaaaa" r="0.15" cy="20.657" cx="23.406000000000002"></circle><circle transform="matrix(10,0,0,10,10,10)" stroke-width="0.1" style="" stroke="#333333" fill="#aaaaaa" r="0.15" cy="23.491" cx="29.685000000000002"></circle><circle transform="matrix(10,0,0,10,10,10)" stroke-width="0.1" style="" stroke="#333333" fill="#aaaaaa" r="0.15" cy="27.085" cx="30.431"></circle><circle transform="matrix(10,0,0,10,10,10)" stroke-width="0.1" style="" stroke="#333333" fill="#aaaaaa" r="0.15" cy="27.085" cx="30.911"></circle><circle transform="matrix(10,0,0,10,10,10)" stroke-width="0.1" style="" stroke="#333333" fill="#aaaaaa" r="0.15" cy="21.779" cx="30.911"></circle><circle transform="matrix(10,0,0,10,10,10)" stroke-width="0.1" style="" stroke="#333333" fill="#aaaaaa" r="0.15" cy="21.758" cx="30.859"></circle><circle transform="matrix(10,0,0,10,10,10)" stroke-width="0.1" style="" stroke="#333333" fill="#aaaaaa" r="0.15" cy="20.319" cx="29.516000000000002"></circle><circle transform="matrix(10,0,0,10,10,10)" stroke-width="0.1" style="" stroke="#333333" fill="#aaaaaa" r="0.15" cy="19.887" cx="29.083000000000002"></circle><circle transform="matrix(10,0,0,10,10,10)" stroke-width="0.1" style="" stroke="#333333" fill="#aaaaaa" r="0.15" cy="17.728" cx="29.947000000000003"></circle><circle transform="matrix(10,0,0,10,10,10)" stroke-width="0.1" style="" stroke="#333333" fill="#aaaaaa" r="0.15" cy="15.887000000000002" cx="30.910000000000004"></circle><circle transform="matrix(10,0,0,10,10,10)" stroke-width="0.1" style="" stroke="#333333" fill="#aaaaaa" r="0.15" cy="14.660000000000002" cx="30.910000000000004"></circle><circle transform="matrix(10,0,0,10,10,10)" stroke-width="0.1" style="" stroke="#333333" fill="#aaaaaa" r="0.15" cy="14.609000000000002" cx="30.907000000000004"></circle><circle transform="matrix(10,0,0,10,10,10)" stroke-width="0.1" style="" stroke="#333333" fill="#aaaaaa" r="0.15" cy="14.609000000000002" cx="30.618000000000002"></circle><circle transform="matrix(10,0,0,10,10,10)" stroke-width="0.1" style="" stroke="#333333" fill="#aaaaaa" r="0.15" cy="12.748000000000001" cx="30.910000000000004"></circle><circle transform="matrix(10,0,0,10,10,10)" stroke-width="0.1" style="" stroke="#333333" fill="#aaaaaa" r="0.15" cy="11.572" cx="30.910000000000004"></circle><circle transform="matrix(10,0,0,10,10,10)" stroke-width="0.1" style="" stroke="#333333" fill="#aaaaaa" r="0.15" cy="11.572" cx="30.913"></circle>​​​​​<rect opacity="0" style="opacity: 0;" stroke="#000" fill="#000000" ry="0" rx="0" r="0" height="350" width="350" y="0" x="0"></rect>​​​​​</svg>