<?xml version="1.0" encoding="UTF-8" standalone="no"?>
<svg
   xmlns:dc="http://purl.org/dc/elements/1.1/"
   xmlns:cc="http://creativecommons.org/ns#"
   xmlns:rdf="http://www.w3.org/1999/02/22-rdf-syntax-ns#"
   xmlns:svg="http://www.w3.org/2000/svg"
   xmlns="http://www.w3.org/2000/svg"
   xmlns:sodipodi="http://sodipodi.sourceforge.net/DTD/sodipodi-0.dtd"
   xmlns:inkscape="http://www.inkscape.org/namespaces/inkscape"
   style="overflow:hidden"
   width="128"
   version="1.1"
   height="128"
   id="svg2"
   inkscape:version="0.48.3.1 r9886"
   sodipodi:docname="mail.svg"><metadata
   id="metadata114">
  <rdf:RDF>
    <cc:Work
       rdf:about="">
      <dc:format>image/svg+xml</dc:format>
      <dc:type
         rdf:resource="http://purl.org/dc/dcmitype/StillImage" />
    </cc:Work>
  </rdf:RDF>
</metadata>
<sodipodi:namedview
   pagecolor="#ffffff"
   bordercolor="#666666"
   borderopacity="1"
   objecttolerance="10"
   gridtolerance="10"
   guidetolerance="10"
   inkscape:pageopacity="0"
   inkscape:pageshadow="2"
   inkscape:window-width="1280"
   inkscape:window-height="756"
   id="namedview112"
   showgrid="false"
   inkscape:zoom="0.67428571"
   inkscape:cx="173.51695"
   inkscape:cy="175"
   inkscape:window-x="0"
   inkscape:window-y="22"
   inkscape:window-maximized="1"
   inkscape:current-layer="svg2" />
<desc
   id="desc4">Created with Raphaël 2.1.2</desc>
<defs
   id="defs6" />
<path
   d="m 122.87155,22.452183 c 0,0 -117.752513,0 -117.752513,0 0,0 58.876259,33.433931 58.876259,33.433931 0,0 58.876254,-33.433931 58.876254,-33.433931 0,0 0,0 0,0 M 67.48074,70.128926 C 66.39889,70.745114 65.199446,71.05556 64,71.05556 c 0,0 -2.398889,-0.310446 -3.485445,-0.926634 0,0 -60.014555,-34.068921 -60.014555,-34.068921 0,0 0,69.487815 0,69.487815 0,0 127,0 127,0 0,0 0,-69.487815 0,-69.487815 0,0 -60.01926,34.068921 -60.01926,34.068921 0,0 0,0 0,0"
   style="fill:#ffffff;fill-opacity:1;stroke:none"
   id="path8"
   inkscape:connector-curvature="0" />
<circle
   transform="matrix(10,0,0,10,10,-212)"
   style="opacity:0;fill:#333333;stroke:#333333;stroke-width:0.1"
   r="0.1"
   cy="7.1669998"
   cx="28.516001"
   id="circle10"
   sodipodi:cx="28.516001"
   sodipodi:cy="7.1669998"
   sodipodi:rx="0.1"
   sodipodi:ry="0.1" />
<circle
   transform="matrix(10,0,0,10,10,-212)"
   style="opacity:0;fill:#333333;stroke:#333333;stroke-width:0.1"
   r="0.1"
   cy="7.1669998"
   cx="3.4820001"
   id="circle12"
   sodipodi:cx="3.4820001"
   sodipodi:cy="7.1669998"
   sodipodi:rx="0.1"
   sodipodi:ry="0.1" />
<path
   d="m 295.16,-140.33 0,0 m -250.34,0 0,0"
   style="opacity:0;fill:#333333;stroke:#333333;stroke-width:1"
   id="path14"
   inkscape:connector-curvature="0" />
<circle
   transform="matrix(10,0,0,10,10,-212)"
   style="opacity:0;fill:#333333;stroke:#333333;stroke-width:0.1"
   r="0.1"
   cy="7.1669998"
   cx="3.4820001"
   id="circle16"
   sodipodi:cx="3.4820001"
   sodipodi:cy="7.1669998"
   sodipodi:rx="0.1"
   sodipodi:ry="0.1" />
<circle
   transform="matrix(10,0,0,10,10,-212)"
   style="opacity:0;fill:#333333;stroke:#333333;stroke-width:0.1"
   r="0.1"
   cy="14.275"
   cx="15.999"
   id="circle18"
   sodipodi:cx="15.999"
   sodipodi:cy="14.275"
   sodipodi:rx="0.1"
   sodipodi:ry="0.1" />
<path
   d="m 44.82,-140.33 0,0 m 125.17,71.08 0,0"
   style="opacity:0;fill:#333333;stroke:#333333;stroke-width:1"
   id="path20"
   inkscape:connector-curvature="0" />
<circle
   transform="matrix(10,0,0,10,10,-212)"
   style="opacity:0;fill:#333333;stroke:#333333;stroke-width:0.1"
   r="0.1"
   cy="14.275"
   cx="15.999"
   id="circle22"
   sodipodi:cx="15.999"
   sodipodi:cy="14.275"
   sodipodi:rx="0.1"
   sodipodi:ry="0.1" />
<circle
   transform="matrix(10,0,0,10,10,-212)"
   style="opacity:0;fill:#333333;stroke:#333333;stroke-width:0.1"
   r="0.1"
   cy="7.1669998"
   cx="28.516001"
   id="circle24"
   sodipodi:cx="28.516001"
   sodipodi:cy="7.1669998"
   sodipodi:rx="0.1"
   sodipodi:ry="0.1" />
<path
   d="m 169.99,-69.25 0,0 m 125.17,-71.08 0,0"
   style="opacity:0;fill:#333333;stroke:#333333;stroke-width:1"
   id="path26"
   inkscape:connector-curvature="0" />
<circle
   transform="matrix(10,0,0,10,10,-212)"
   style="opacity:0;fill:#333333;stroke:#333333;stroke-width:0.1"
   r="0.1"
   cy="7.1669998"
   cx="28.516001"
   id="circle28"
   sodipodi:cx="28.516001"
   sodipodi:cy="7.1669998"
   sodipodi:rx="0.1"
   sodipodi:ry="0.1" />
<circle
   transform="matrix(10,0,0,10,10,-212)"
   style="opacity:0;fill:#333333;stroke:#333333;stroke-width:0.1"
   r="0.1"
   cy="7.1669998"
   cx="28.516001"
   id="circle30"
   sodipodi:cx="28.516001"
   sodipodi:cy="7.1669998"
   sodipodi:rx="0.1"
   sodipodi:ry="0.1" />
<path
   d="m 295.16,-140.33 0,0 m 0,0 0,0"
   style="opacity:0;fill:#333333;stroke:#333333;stroke-width:1"
   id="path32"
   inkscape:connector-curvature="0" />
<circle
   transform="matrix(10,0,0,10,10,-212)"
   style="opacity:0;fill:#333333;stroke:#333333;stroke-width:0.1"
   r="0.1"
   cy="17.434"
   cx="16.51"
   id="circle34"
   sodipodi:cx="16.51"
   sodipodi:cy="17.434"
   sodipodi:rx="0.1"
   sodipodi:ry="0.1" />
<circle
   transform="matrix(10,0,0,10,10,-212)"
   style="opacity:0;fill:#333333;stroke:#333333;stroke-width:0.1"
   r="0.1"
   cy="17.5"
   cx="16.254999"
   id="circle36"
   sodipodi:cx="16.254999"
   sodipodi:cy="17.5"
   sodipodi:rx="0.1"
   sodipodi:ry="0.1" />
<path
   d="m 177.4,-38.97 -2.3,1.31 m -2.55,0.66 -2.55,0"
   style="opacity:0;fill:#333333;stroke:#333333;stroke-width:1"
   id="path38"
   inkscape:connector-curvature="0" />
<circle
   transform="matrix(10,0,0,10,10,-212)"
   style="opacity:0;fill:#333333;stroke:#333333;stroke-width:0.1"
   r="0.1"
   cy="17.5"
   cx="16"
   id="circle40"
   sodipodi:cx="16"
   sodipodi:cy="17.5"
   sodipodi:rx="0.1"
   sodipodi:ry="0.1" />
<circle
   transform="matrix(10,0,0,10,10,-212)"
   style="opacity:0;fill:#333333;stroke:#333333;stroke-width:0.1"
   r="0.1"
   cy="17.434"
   cx="15.49"
   id="circle42"
   sodipodi:cx="15.49"
   sodipodi:cy="17.434"
   sodipodi:rx="0.1"
   sodipodi:ry="0.1" />
<path
   d="m 170,-37 0,0 m -5.1,-0.66 -2.31,-1.31"
   style="opacity:0;fill:#333333;stroke:#333333;stroke-width:1"
   id="path44"
   inkscape:connector-curvature="0" />
<circle
   transform="matrix(10,0,0,10,10,-212)"
   style="opacity:0;fill:#333333;stroke:#333333;stroke-width:0.1"
   r="0.1"
   cy="17.302999"
   cx="15.259"
   id="circle46"
   sodipodi:cx="15.259"
   sodipodi:cy="17.302999"
   sodipodi:rx="0.1"
   sodipodi:ry="0.1" />
<circle
   transform="matrix(10,0,0,10,10,-212)"
   style="opacity:0;fill:#333333;stroke:#333333;stroke-width:0.1"
   r="0.1"
   cy="10.06"
   cx="2.5"
   id="circle48"
   sodipodi:cx="2.5"
   sodipodi:cy="10.06"
   sodipodi:rx="0.1"
   sodipodi:ry="0.1" />
<path
   d="m 162.59,-38.97 0,0 M 35,-111.4 l 0,0"
   style="opacity:0;fill:#333333;stroke:#333333;stroke-width:1"
   id="path50"
   inkscape:connector-curvature="0" />
<circle
   transform="matrix(10,0,0,10,10,-212)"
   style="opacity:0;fill:#333333;stroke:#333333;stroke-width:0.1"
   r="0.1"
   cy="10.06"
   cx="2.5"
   id="circle52"
   sodipodi:cx="2.5"
   sodipodi:cy="10.06"
   sodipodi:rx="0.1"
   sodipodi:ry="0.1" />
<circle
   transform="matrix(10,0,0,10,10,-212)"
   style="opacity:0;fill:#333333;stroke:#333333;stroke-width:0.1"
   r="0.1"
   cy="24.833"
   cx="2.5"
   id="circle54"
   sodipodi:cx="2.5"
   sodipodi:cy="24.833"
   sodipodi:rx="0.1"
   sodipodi:ry="0.1" />
<path
   d="m 35,-111.4 0,0 m 0,147.73 0,0"
   style="opacity:0;fill:#333333;stroke:#333333;stroke-width:1"
   id="path56"
   inkscape:connector-curvature="0" />
<circle
   transform="matrix(10,0,0,10,10,-212)"
   style="opacity:0;fill:#333333;stroke:#333333;stroke-width:0.1"
   r="0.1"
   cy="24.833"
   cx="2.5"
   id="circle58"
   sodipodi:cx="2.5"
   sodipodi:cy="24.833"
   sodipodi:rx="0.1"
   sodipodi:ry="0.1" />
<circle
   transform="matrix(10,0,0,10,10,-212)"
   style="opacity:0;fill:#333333;stroke:#333333;stroke-width:0.1"
   r="0.1"
   cy="24.833"
   cx="29.5"
   id="circle60"
   sodipodi:cx="29.5"
   sodipodi:cy="24.833"
   sodipodi:rx="0.1"
   sodipodi:ry="0.1" />
<path
   d="m 35,36.33 0,0 m 270,0 0,0"
   style="opacity:0;fill:#333333;stroke:#333333;stroke-width:1"
   id="path62"
   inkscape:connector-curvature="0" />
<circle
   transform="matrix(10,0,0,10,10,-212)"
   style="opacity:0;fill:#333333;stroke:#333333;stroke-width:0.1"
   r="0.1"
   cy="24.833"
   cx="29.5"
   id="circle64"
   sodipodi:cx="29.5"
   sodipodi:cy="24.833"
   sodipodi:rx="0.1"
   sodipodi:ry="0.1" />
<circle
   transform="matrix(10,0,0,10,10,-212)"
   style="opacity:0;fill:#333333;stroke:#333333;stroke-width:0.1"
   r="0.1"
   cy="10.06"
   cx="29.5"
   id="circle66"
   sodipodi:cx="29.5"
   sodipodi:cy="10.06"
   sodipodi:rx="0.1"
   sodipodi:ry="0.1" />
<path
   d="m 305,36.33 0,0 m 0,-147.73 0,0"
   style="opacity:0;fill:#333333;stroke:#333333;stroke-width:1"
   id="path68"
   inkscape:connector-curvature="0" />
<circle
   transform="matrix(10,0,0,10,10,-212)"
   style="opacity:0;fill:#333333;stroke:#333333;stroke-width:0.1"
   r="0.1"
   cy="10.06"
   cx="29.5"
   id="circle70"
   sodipodi:cx="29.5"
   sodipodi:cy="10.06"
   sodipodi:rx="0.1"
   sodipodi:ry="0.1" />
<circle
   transform="matrix(10,0,0,10,10,-212)"
   style="opacity:0;fill:#333333;stroke:#333333;stroke-width:0.1"
   r="0.1"
   cy="17.302999"
   cx="16.74"
   id="circle72"
   sodipodi:cx="16.74"
   sodipodi:cy="17.302999"
   sodipodi:rx="0.1"
   sodipodi:ry="0.1" />
<path
   d="m 305,-111.4 0,0 m -127.6,72.43 0,0"
   style="opacity:0;fill:#333333;stroke:#333333;stroke-width:1"
   id="path74"
   inkscape:connector-curvature="0" />
<circle
   transform="matrix(10,0,0,10,10,-212)"
   style="opacity:0;fill:#333333;stroke:#333333;stroke-width:0.1"
   r="0.1"
   cy="17.302999"
   cx="16.74"
   id="circle76"
   sodipodi:cx="16.74"
   sodipodi:cy="17.302999"
   sodipodi:rx="0.1"
   sodipodi:ry="0.1" />
<circle
   transform="matrix(10,0,0,10,10,-212)"
   style="opacity:0;fill:#333333;stroke:#333333;stroke-width:0.1"
   r="0.1"
   cy="17.302999"
   cx="16.74"
   id="circle78"
   sodipodi:cx="16.74"
   sodipodi:cy="17.302999"
   sodipodi:rx="0.1"
   sodipodi:ry="0.1" />
<path
   d="m 177.4,-38.97 0,0 m 0,0 0,0"
   style="opacity:0;fill:#333333;stroke:#333333;stroke-width:1"
   id="path80"
   inkscape:connector-curvature="0" />
<circle
   transform="matrix(10,0,0,10,10,-212)"
   style="fill:#aaaaaa;stroke:#333333;stroke-width:0.1"
   r="0"
   cy="7.1669998"
   cx="28.516001"
   id="circle82"
   sodipodi:cx="28.516001"
   sodipodi:cy="7.1669998"
   sodipodi:rx="0"
   sodipodi:ry="0" />
<circle
   transform="matrix(10,0,0,10,10,-212)"
   style="fill:#aaaaaa;stroke:#333333;stroke-width:0.1"
   r="0"
   cy="7.1669998"
   cx="3.4820001"
   id="circle84"
   sodipodi:cx="3.4820001"
   sodipodi:cy="7.1669998"
   sodipodi:rx="0"
   sodipodi:ry="0" />
<circle
   transform="matrix(10,0,0,10,10,-212)"
   style="fill:#aaaaaa;stroke:#333333;stroke-width:0.1"
   r="0"
   cy="14.275"
   cx="15.999"
   id="circle86"
   sodipodi:cx="15.999"
   sodipodi:cy="14.275"
   sodipodi:rx="0"
   sodipodi:ry="0" />
<circle
   transform="matrix(10,0,0,10,10,-212)"
   style="fill:#aaaaaa;stroke:#333333;stroke-width:0.1"
   r="0"
   cy="7.1669998"
   cx="28.516001"
   id="circle88"
   sodipodi:cx="28.516001"
   sodipodi:cy="7.1669998"
   sodipodi:rx="0"
   sodipodi:ry="0" />
<circle
   transform="matrix(10,0,0,10,10,-212)"
   style="fill:#aaaaaa;stroke:#333333;stroke-width:0.1"
   r="0"
   cy="7.1669998"
   cx="28.516001"
   id="circle90"
   sodipodi:cx="28.516001"
   sodipodi:cy="7.1669998"
   sodipodi:rx="0"
   sodipodi:ry="0" />
<circle
   transform="matrix(10,0,0,10,10,-212)"
   style="fill:#aaaaaa;stroke:#333333;stroke-width:0.1"
   r="0"
   cy="17.302999"
   cx="16.74"
   id="circle92"
   sodipodi:cx="16.74"
   sodipodi:cy="17.302999"
   sodipodi:rx="0"
   sodipodi:ry="0" />
<circle
   transform="matrix(10,0,0,10,10,-212)"
   style="fill:#aaaaaa;stroke:#333333;stroke-width:0.1"
   r="0"
   cy="17.5"
   cx="16"
   id="circle94"
   sodipodi:cx="16"
   sodipodi:cy="17.5"
   sodipodi:rx="0"
   sodipodi:ry="0" />
<circle
   transform="matrix(10,0,0,10,10,-212)"
   style="fill:#aaaaaa;stroke:#333333;stroke-width:0.1"
   r="0"
   cy="17.302999"
   cx="15.259"
   id="circle96"
   sodipodi:cx="15.259"
   sodipodi:cy="17.302999"
   sodipodi:rx="0"
   sodipodi:ry="0" />
<circle
   transform="matrix(10,0,0,10,10,-212)"
   style="fill:#aaaaaa;stroke:#333333;stroke-width:0.1"
   r="0"
   cy="10.06"
   cx="2.5"
   id="circle98"
   sodipodi:cx="2.5"
   sodipodi:cy="10.06"
   sodipodi:rx="0"
   sodipodi:ry="0" />
<circle
   transform="matrix(10,0,0,10,10,-212)"
   style="fill:#aaaaaa;stroke:#333333;stroke-width:0.1"
   r="0"
   cy="24.833"
   cx="2.5"
   id="circle100"
   sodipodi:cx="2.5"
   sodipodi:cy="24.833"
   sodipodi:rx="0"
   sodipodi:ry="0" />
<circle
   transform="matrix(10,0,0,10,10,-212)"
   style="fill:#aaaaaa;stroke:#333333;stroke-width:0.1"
   r="0"
   cy="24.833"
   cx="29.5"
   id="circle102"
   sodipodi:cx="29.5"
   sodipodi:cy="24.833"
   sodipodi:rx="0"
   sodipodi:ry="0" />
<circle
   transform="matrix(10,0,0,10,10,-212)"
   style="fill:#aaaaaa;stroke:#333333;stroke-width:0.1"
   r="0"
   cy="10.06"
   cx="29.5"
   id="circle104"
   sodipodi:cx="29.5"
   sodipodi:cy="10.06"
   sodipodi:rx="0"
   sodipodi:ry="0" />
<circle
   transform="matrix(10,0,0,10,10,-212)"
   style="fill:#aaaaaa;stroke:#333333;stroke-width:0.1"
   r="0"
   cy="17.302999"
   cx="16.74"
   id="circle106"
   sodipodi:cx="16.74"
   sodipodi:cy="17.302999"
   sodipodi:rx="0"
   sodipodi:ry="0" />
<circle
   transform="matrix(10,0,0,10,10,-212)"
   style="fill:#aaaaaa;stroke:#333333;stroke-width:0.1"
   r="0"
   cy="17.302999"
   cx="16.74"
   id="circle108"
   sodipodi:cx="16.74"
   sodipodi:cy="17.302999"
   sodipodi:rx="0"
   sodipodi:ry="0" />
​​​​​<rect
   style="opacity:0;fill:#000000;stroke:#000000"
   ry="0"
   rx="0"
   r="0"
   height="350"
   width="350"
   y="-222"
   x="0"
   id="rect110" />
​​​​​</svg>
