<?xml version="1.0" encoding="UTF-8" standalone="no"?>
<!-- Generator: Adobe Illustrator 14.0.0, SVG Export Plug-In . SVG Version: 6.00 Build 43363)  -->

<svg
   xmlns:dc="http://purl.org/dc/elements/1.1/"
   xmlns:cc="http://creativecommons.org/ns#"
   xmlns:rdf="http://www.w3.org/1999/02/22-rdf-syntax-ns#"
   xmlns:svg="http://www.w3.org/2000/svg"
   xmlns="http://www.w3.org/2000/svg"
   xmlns:sodipodi="http://sodipodi.sourceforge.net/DTD/sodipodi-0.dtd"
   xmlns:inkscape="http://www.inkscape.org/namespaces/inkscape"
   version="1.1"
   id="Art"
   x="0px"
   y="0px"
   width="128"
   height="128"
   viewBox="0 0 128 128"
   enable-background="new 0 0 505 470"
   xml:space="preserve"
   inkscape:version="0.48.3.1 r9886"
   sodipodi:docname="nautilus_shell.svg"><metadata
   id="metadata59"><rdf:RDF><cc:Work
       rdf:about=""><dc:format>image/svg+xml</dc:format><dc:type
         rdf:resource="http://purl.org/dc/dcmitype/StillImage" /></cc:Work></rdf:RDF></metadata><defs
   id="defs57" /><sodipodi:namedview
   pagecolor="#ffffff"
   bordercolor="#666666"
   borderopacity="1"
   objecttolerance="10"
   gridtolerance="10"
   guidetolerance="10"
   inkscape:pageopacity="0"
   inkscape:pageshadow="2"
   inkscape:window-width="1280"
   inkscape:window-height="752"
   id="namedview55"
   showgrid="false"
   inkscape:zoom="4.12"
   inkscape:cx="63.999999"
   inkscape:cy="64.628072"
   inkscape:window-x="0"
   inkscape:window-y="27"
   inkscape:window-maximized="1"
   inkscape:current-layer="Art" />

























<path
   inkscape:connector-curvature="0"
   d="m 85.635584,54.687169 c 0,0 6.199188,-13.790855 8.47673,-17.839773 2.277541,-4.048917 4.048917,-10.754271 1.265208,-18.598813 C 92.593813,10.404041 88.038729,3.44456 85.002563,0.78812315 c 0,0 -18.598814,0.25329205 -36.438586,13.66483485 -17.839772,13.411543 -25.05171,29.10021 -26.696647,33.908169 -1.644939,4.807959 -6.705772,19.486795 -4.048918,34.54286 2.656854,15.056063 6.958646,22.647723 18.472376,24.924853 11.51373,2.27713 18.219501,-3.79604 20.117314,-6.70577 1.897813,-2.909729 4.428229,-6.326459 1.391646,-12.778939 -3.036583,-6.452479 -3.380844,-11.639749 -0.867953,-18.345521 2.512891,-6.705771 7.447287,-9.995229 11.622642,-12.526064 4.175354,-2.530416 11.640584,-3.926235 17.081147,-2.785377 z"
   id="path3"
   style="fill:#ffffff;fill-opacity:1;fill-rule:nonzero;stroke:none;stroke-width:0;stroke-miterlimit:4;stroke-opacity:1;stroke-dasharray:none" /><path
   inkscape:connector-curvature="0"
   d="m 27.056269,105.95398 c 0,0 8.37992,5.06375 18.910526,3.67462 0,0 1.12041,1.56857 2.061388,1.4342 0,0 0.851679,-0.82831 0.761963,-2.22914 0,0 12.457628,-4.00092 12.144247,-16.23322 0,0 2.419836,2.644752 5.108404,4.392343 2.688568,1.747589 3.405881,4.884327 3.092083,7.797387 -0.313798,2.91307 -0.672664,8.69205 -6.363597,12.41173 -5.690934,3.71968 -11.442793,4.51503 -14.966765,4.51503 -6.587262,0 -14.474784,-6.89106 -20.748249,-15.76295 z"
   id="path5"
   style="fill:#ffffff;fill-opacity:1;fill-rule:nonzero;stroke:none;stroke-width:0;stroke-miterlimit:4;stroke-opacity:1;stroke-dasharray:none" /><path
   inkscape:connector-curvature="0"
   d="m 47.877543,123.5029 c 0,0 9.597975,0.20906 17.365319,-5.93379 0,0 1.169233,0.54456 1.858588,-0.0125 0,0 0.286675,-1.06867 -0.453172,-2.14443 0,0 8.298966,-8.47631 2.214114,-18.093895 0,0 3.023649,0.28584 5.962171,0.824555 2.096439,0.38432 5.012428,2.63182 6.180825,4.31431 1.554387,2.23874 3.607431,7.26243 0.825391,12.95378 -2.781205,5.69177 -7.005799,9.07595 -9.827064,10.76053 -5.273232,3.14884 -14.87371,1.41669 -24.126172,-2.66854 z"
   id="path7"
   style="fill:#ffffff;fill-opacity:1;fill-rule:nonzero;stroke:none;stroke-width:0;stroke-miterlimit:4;stroke-opacity:1;stroke-dasharray:none" /><path
   inkscape:connector-curvature="0"
   d="m 73.159594,127.13996 c 0,0 7.470656,-3.68338 10.555227,-12.02198 0,0 1.57859,-0.2316 1.846903,-0.9802 0,0 -0.272069,-0.94766 -1.327801,-1.4171 0,0 2.418168,-10.36454 -6.617723,-14.808619 0,0 2.428599,-1.209292 4.909359,-2.186156 1.769706,-0.697283 5.016183,-0.363873 6.675309,0.365124 2.20869,0.969354 6.073584,3.822332 6.569736,9.464031 0.496987,5.64211 -1.160469,10.21012 -2.531669,12.82275 -2.562964,4.88349 -11.174059,7.5032 -20.079341,8.76215 z"
   id="path9"
   style="fill:#ffffff;fill-opacity:1;fill-rule:nonzero;stroke:none;stroke-width:0;stroke-miterlimit:4;stroke-opacity:1;stroke-dasharray:none" /><path
   inkscape:connector-curvature="0"
   d="m 95.031592,118.45751 c 0,0 3.387104,-6.12783 2.290061,-13.90352 0,0 0.987297,-0.72567 0.906343,-1.41793 0,0 -0.413947,-0.62885 -1.425445,-0.58588 0,0 -3.008626,-9.145215 -11.837544,-9.111832 0,0 1.581928,-2.562548 3.148833,-4.296367 1.117907,-1.23725 4.280928,-1.785563 5.86828,-1.860257 2.11188,-0.09931 6.85683,1.082437 9.4465,5.318716 2.5905,4.236278 3.15885,8.31774 3.10126,10.90407 -0.10766,4.83342 -4.99698,10.49223 -11.498288,14.953 z"
   id="path11"
   style="fill:#ffffff;fill-opacity:1;fill-rule:nonzero;stroke:none;stroke-width:0;stroke-miterlimit:4;stroke-opacity:1;stroke-dasharray:none" /><path
   inkscape:connector-curvature="0"
   d="m 107.81679,101.73231 c 0,0 -0.49574,-6.56056 -4.99741,-11.901809 0,0 -0.009,-0.315468 -0.285,-0.857938 0,0 -0.43857,-0.460683 -1.05365,-0.406853 0,0 -6.589762,-5.469772 -13.226682,-1.272719 0,0 -0.01919,-2.677718 0.341756,-4.724919 0.257882,-1.460915 2.382281,-3.36916 3.542751,-4.175772 1.543955,-1.072423 5.678415,-2.424844 9.632195,-0.456511 3.9546,1.968752 6.31143,4.774994 7.4911,6.751673 2.20368,3.693391 1.34574,10.610726 -1.44506,17.044848 z"
   id="path13"
   style="fill:#ffffff;fill-opacity:1;fill-rule:nonzero;stroke:none;stroke-width:0;stroke-miterlimit:4;stroke-opacity:1;stroke-dasharray:none" /><path
   inkscape:connector-curvature="0"
   d="m 110.26082,83.620465 c 0,0 -2.97732,-5.327062 -8.88232,-7.734797 0,0 -0.13103,-0.262889 -0.57669,-0.593379 0,0 -0.55165,-0.183189 -1.053227,0.151474 0,0 -7.729789,-1.533522 -11.734056,5.148047 0,0 -0.90843,-1.755937 -1.407921,-3.659174 -0.59171,-2.253757 0.569595,-4.484145 1.241841,-5.713467 0.893825,-1.635757 3.886176,-3.693808 8.012291,-3.88701 4.12695,-0.192368 6.606462,0.883392 8.378252,2.003803 3.31115,2.092684 5.88622,7.51739 6.02183,14.284503 z"
   id="path15"
   style="fill:#ffffff;fill-opacity:1;fill-rule:nonzero;stroke:none;stroke-width:0;stroke-miterlimit:4;stroke-opacity:1;stroke-dasharray:none" /><path
   inkscape:connector-curvature="0"
   d="m 104.0629,67.92053 c 0,0 -4.875565,-2.774111 -10.726737,-1.982521 0,0 -0.227003,-0.143963 -0.739011,-0.199879 0,0 -0.527032,0.106825 -0.771978,0.589623 0,0 -6.901479,2.285471 -6.977007,9.23744 0,0 -1.54938,-0.947237 -2.839624,-2.191164 -1.528516,-1.473433 -1.643269,-3.715089 -1.681243,-4.966109 -0.05049,-1.662464 1.38038,-4.593058 4.590554,-6.59394 3.211008,-2.000464 5.698027,-2.282966 7.64049,-2.214115 3.629128,0.12936 8.228856,3.160101 11.504556,8.320665 z"
   id="path17"
   style="fill:#ffffff;fill-opacity:1;fill-rule:nonzero;stroke:none;stroke-width:0;stroke-miterlimit:4;stroke-opacity:1;stroke-dasharray:none" /><path
   inkscape:connector-curvature="0"
   d="m 91.903623,58.48947 c 0,0 -5.111324,-0.07261 -9.397677,3.158014 0,0 -0.244529,-0.01502 -0.675585,0.166496 0,0 -0.370131,0.320058 -0.347181,0.816628 0,0 -4.448676,4.898092 -1.389559,10.526433 0,0 -1.653701,-0.07553 -3.235629,-0.504497 -1.873193,-0.509505 -2.969818,-2.262937 -3.561528,-3.253155 -0.785748,-1.315283 -0.96518,-4.307635 0.683096,-7.341714 1.649528,-3.032828 3.495597,-4.361881 5.067093,-5.167242 2.936017,-1.503478 7.944273,-1.102466 12.85697,1.599037 z"
   id="path19"
   style="fill:#ffffff;fill-opacity:1;fill-rule:nonzero;stroke:none;stroke-width:0;stroke-miterlimit:4;stroke-opacity:1;stroke-dasharray:none" /><path
   inkscape:connector-curvature="0"
   d="m 76.533762,56.647156 c 0,0 -2.29173,1.987112 -4.537558,6.233823 0,0 -0.162324,0.09639 -0.377643,0.48113 0,0 -0.145633,0.302114 -0.07052,0.712723 0,0 -1.692092,5.718892 3.192648,9.416454 0,0 -1.413345,0.517016 -2.91265,0.709385 -1.775966,0.226586 -3.417982,-0.875047 -4.321822,-1.506817 -1.200946,-0.839577 -2.316767,-3.106269 -2.194084,-6.259276 0.123933,-3.151754 0.776567,-4.142389 1.756769,-5.37797 1.831465,-2.308004 4.337679,-3.763911 9.464861,-4.409452 z"
   id="path21"
   style="fill:#ffffff;fill-opacity:1;fill-rule:nonzero;stroke:none;stroke-width:0;stroke-miterlimit:4;stroke-opacity:1;stroke-dasharray:none" /><path
   inkscape:connector-curvature="0"
   d="m 65.095977,62.298449 c 0,0 -0.953913,2.460312 -0.840828,6.641091 0,0 -0.08763,0.140208 -0.08722,0.524111 0,0 0.01919,0.290848 0.267481,0.57627 0,0 1.233494,5.085871 6.881865,5.935881 0,0 -0.91135,0.973108 -2.040107,1.732984 -1.338233,0.897998 -3.172201,0.721487 -4.193715,0.60423 -1.35701,-0.155648 -3.295301,-1.442972 -4.632699,-3.916221 -1.335729,-2.472831 -1.257698,-3.500605 -1.025686,-4.849687 0.434811,-2.521237 1.804758,-4.663161 5.670903,-7.248659 z"
   id="path23"
   style="fill:#ffffff;fill-opacity:1;fill-rule:nonzero;stroke:none;stroke-width:0;stroke-miterlimit:4;stroke-opacity:1;stroke-dasharray:none" /><path
   inkscape:connector-curvature="0"
   d="m 58.456137,71.987808 c 0,0 0.370133,2.243325 2.306752,5.280743 0,0 -0.0042,0.143129 0.16608,0.425631 0,0 0.143546,0.206555 0.456927,0.306704 0,0 3.181798,3.20767 7.817836,1.316952 0,0 0.01043,1.389977 -0.504497,2.45447 -0.611323,1.260201 -1.981687,1.580259 -3.161353,2.050957 -1.112064,0.443574 -3.123796,0.403514 -5.22733,-0.827059 -2.101865,-1.230573 -2.498285,-2.025501 -2.920995,-3.125048 -0.788669,-2.056799 -0.704377,-4.249631 1.06658,-7.88335 z"
   id="path25"
   style="fill:#ffffff;fill-opacity:1;fill-rule:nonzero;stroke:none;stroke-width:0;stroke-miterlimit:4;stroke-opacity:1;stroke-dasharray:none" /><path
   inkscape:connector-curvature="0"
   d="m 57.727975,82.44998 c 0,0 1.28023,1.610303 4.184952,3.091248 0,0 0.05883,0.116422 0.320892,0.258716 0,0 0.207391,0.09472 0.506585,0.0217 0,0 3.993835,1.009829 6.949048,-2.759924 0,0 0.615078,1.104136 0.659727,2.204517 0.05133,1.305267 -0.926372,2.229136 -1.68291,3.179712 -0.713141,0.896746 -2.371431,1.846487 -4.623519,1.888633 -2.250836,0.04339 -2.920996,-0.39809 -3.745133,-1.06992 -1.539783,-1.257697 -2.427766,-3.049519 -2.569642,-6.814682 z"
   id="path27"
   style="fill:#ffffff;fill-opacity:1;fill-rule:nonzero;stroke:none;stroke-width:0;stroke-miterlimit:4;stroke-opacity:1;stroke-dasharray:none" /><path
   inkscape:connector-curvature="0"
   d="m 71.606877,85.968527 c 0,0 -0.680592,6.630661 -9.378482,5.345006 0,0 3.37834,4.614338 8.722927,2.42067 0,-4.17e-4 5.57159,-3.807727 0.655555,-7.765676 z"
   id="path29"
   style="fill:#ffffff;fill-opacity:1;fill-rule:nonzero;stroke:none;stroke-width:0;stroke-miterlimit:4;stroke-opacity:1;stroke-dasharray:none" /><path
   inkscape:connector-curvature="0"
   d="m 74.372225,87.272126 c 0,0 3.077895,5.015767 -4.221673,8.615268 0,0 4.814635,1.451735 7.683053,-2.859654 0,4.17e-4 2.416497,-5.518178 -3.46138,-5.755614 z"
   id="path31"
   style="fill:#ffffff;fill-opacity:1;fill-rule:nonzero;stroke:none;stroke-width:0;stroke-miterlimit:4;stroke-opacity:1;stroke-dasharray:none" /><path
   inkscape:connector-curvature="0"
   d="m 77.690894,87.227477 c 0,0 4.339347,2.666869 -0.392248,8.571035 0,0 4.785425,-0.545391 5.148463,-5.317046 0,0 0.179015,-5.5332 -4.756215,-3.253989 z"
   id="path33"
   style="fill:#ffffff;fill-opacity:1;fill-rule:nonzero;stroke:none;stroke-width:0;stroke-miterlimit:4;stroke-opacity:1;stroke-dasharray:none" /><path
   inkscape:connector-curvature="0"
   d="m 79.612909,85.346355 c 0,0 5.075855,0.426048 3.510619,7.829103 0,0 3.966712,-3.009876 2.072238,-6.7813 -1.894057,-3.771839 -4.868883,-1.8782 -5.582857,-1.047803 z"
   id="path35"
   style="fill:#ffffff;fill-opacity:1;fill-rule:nonzero;stroke:none;stroke-width:0;stroke-miterlimit:4;stroke-opacity:1;stroke-dasharray:none" /><path
   inkscape:connector-curvature="0"
   d="m 80.345244,83.19859 c 0,0 3.941258,-1.994206 6.286817,3.933329 0,0 1.500557,-3.916221 -1.677903,-5.718475 -3.178461,-1.803089 -4.475383,0.877133 -4.608914,1.785146 z"
   id="path37"
   style="fill:#ffffff;fill-opacity:1;fill-rule:nonzero;stroke:none;stroke-width:0;stroke-miterlimit:4;stroke-opacity:1;stroke-dasharray:none" /><path
   inkscape:connector-curvature="0"
   d="m 80.207957,80.960689 c 0,0 2.301745,-3.347878 6.808841,0.401846 0,0 -0.516182,-3.822332 -3.876578,-3.875326 -3.360398,-0.05383 -3.225197,2.681474 -2.932263,3.47348 z"
   id="path39"
   style="fill:#ffffff;fill-opacity:1;fill-rule:nonzero;stroke:none;stroke-width:0;stroke-miterlimit:4;stroke-opacity:1;stroke-dasharray:none" /><path
   inkscape:connector-curvature="0"
   d="m 78.969455,79.120045 c 0,0 0.323396,-3.519382 5.338745,-2.589672 0,0 -2.016738,-2.681891 -4.589718,-1.293166 -2.572981,1.387473 -1.307771,3.406298 -0.749027,3.882838 z"
   id="path41"
   style="fill:#ffffff;fill-opacity:1;fill-rule:nonzero;stroke:none;stroke-width:0;stroke-miterlimit:4;stroke-opacity:1;stroke-dasharray:none" /><path
   inkscape:connector-curvature="0"
   d="m 76.746995,78.252092 c 0,0 -1.171737,-2.830862 3.051605,-4.141972 0,0 -2.630148,-1.24351 -4.043492,0.860859 -1.414596,2.102282 0.370966,3.140905 0.991887,3.281113 z"
   id="path43"
   style="fill:#ffffff;fill-opacity:1;fill-rule:nonzero;stroke:none;stroke-width:0;stroke-miterlimit:4;stroke-opacity:1;stroke-dasharray:none" /><path
   inkscape:connector-curvature="0"
   d="m 75.438805,78.937274 c 0,0 -2.464485,-0.882558 -0.871707,-4.308468 0,0 -2.295904,0.95141 -1.774715,3.054109 0.519521,2.101448 2.201597,1.566905 2.646422,1.254359 z"
   id="path45"
   style="fill:#ffffff;fill-opacity:1;fill-rule:nonzero;stroke:none;stroke-width:0;stroke-miterlimit:4;stroke-opacity:1;stroke-dasharray:none" /><path
   inkscape:connector-curvature="0"
   d="m 74.077205,80.042663 c 0,0 -2.18574,0.477374 -2.583829,-2.727793 0,0 -1.23266,1.730481 0.09765,3.017806 1.329469,1.287741 2.305499,0.137704 2.486184,-0.290013 z"
   id="path47"
   style="fill:#ffffff;fill-opacity:1;fill-rule:nonzero;stroke:none;stroke-width:0;stroke-miterlimit:4;stroke-opacity:1;stroke-dasharray:none" /><path
   inkscape:connector-curvature="0"
   d="m 73.670352,81.661311 c 0,0 -1.356177,1.397488 -3.186389,-0.736508 0,0 -0.06176,1.84899 1.522673,2.142758 1.582762,0.295022 1.737993,-1.008994 1.663716,-1.40625 z"
   id="path49"
   style="fill:#ffffff;fill-opacity:1;fill-rule:nonzero;stroke:none;stroke-width:0;stroke-miterlimit:4;stroke-opacity:1;stroke-dasharray:none" /><path
   inkscape:connector-curvature="0"
   d="m 74.208649,83.185236 c 0,0 -0.322978,1.622822 -2.613038,0.944317 0,0 0.808697,1.34783 2.074741,0.826224 1.265208,-0.51952 0.774898,-1.521004 0.538297,-1.770541 z"
   id="path51"
   style="fill:#ffffff;fill-opacity:1;fill-rule:nonzero;stroke:none;stroke-width:0;stroke-miterlimit:4;stroke-opacity:1;stroke-dasharray:none" /><path
   inkscape:connector-curvature="0"
   d="m 75.224739,84.111609 c 0,0 0.648043,1.077847 -0.986462,1.867351 0,0 1.143778,0.344677 1.589022,-0.5963 0.446077,-0.938892 -0.342175,-1.251856 -0.60256,-1.271051 z"
   id="path53"
   style="fill:#ffffff;fill-opacity:1;fill-rule:nonzero;stroke:none;stroke-width:0;stroke-miterlimit:4;stroke-opacity:1;stroke-dasharray:none" />
</svg>