<?xml version="1.0" encoding="UTF-8" standalone="no"?>
<!-- Created with Inkscape (http://www.inkscape.org/) -->

<svg
   xmlns:dc="http://purl.org/dc/elements/1.1/"
   xmlns:cc="http://creativecommons.org/ns#"
   xmlns:rdf="http://www.w3.org/1999/02/22-rdf-syntax-ns#"
   xmlns:svg="http://www.w3.org/2000/svg"
   xmlns="http://www.w3.org/2000/svg"
   xmlns:sodipodi="http://sodipodi.sourceforge.net/DTD/sodipodi-0.dtd"
   xmlns:inkscape="http://www.inkscape.org/namespaces/inkscape"
   width="219.52097"
   height="194.21895"
   id="svg4170"
   version="1.1"
   inkscape:version="0.48.3.1 r9886"
   sodipodi:docname="shell.svg">
  <defs
     id="defs4172" />
  <sodipodi:namedview
     id="base"
     pagecolor="#ffffff"
     bordercolor="#666666"
     borderopacity="1.0"
     inkscape:pageopacity="0.0"
     inkscape:pageshadow="2"
     inkscape:zoom="2.6310511"
     inkscape:cx="60.350575"
     inkscape:cy="97.109471"
     inkscape:document-units="px"
     inkscape:current-layer="layer1"
     showgrid="false"
     fit-margin-top="0"
     fit-margin-left="0"
     fit-margin-right="0"
     fit-margin-bottom="0"
     inkscape:window-width="1280"
     inkscape:window-height="741"
     inkscape:window-x="0"
     inkscape:window-y="27"
     inkscape:window-maximized="1" />
  <g
     inkscape:label="Ebene 1"
     inkscape:groupmode="layer"
     id="layer1"
     transform="translate(-32.382369,-14.651314)">
    <path
       id="path4156"
       style="fill:#ffffff;fill-rule:nonzero;stroke:none;stroke-width:1px;stroke-linecap:butt;stroke-linejoin:miter;stroke-opacity:1;display:inline"
       d="m 155.38513,201.3721 c 0,0 17.81918,-14.80362 21.24596,-18.64156 3.42677,-3.83799 17.23756,-15.14087 23.5155,-18.71355 M 75.884258,160.52511 c 0,0 32.759882,21.93125 43.314302,41.12112 m 0,0 c 0,0 -37.831461,2.19313 -40.572898,1.64487 -2.741404,-0.54828 -8.224211,-34.81591 -2.741404,-42.76599 0,0 -17.819157,-5.48283 -21.657145,-8.77251 -3.837965,-3.28971 -19.463977,-8.77252 -20.83469,-19.18985 -1.370713,-10.41738 0.548258,-11.37685 -0.274152,-15.07778 -0.822409,-3.7009 1.918994,-8.22421 1.644865,-10.28029 -0.274129,-2.05604 -2.467274,-7.12766 -1.233648,-9.73198 1.233648,-2.60436 6.442304,-4.6604 6.716455,-6.85352 0.274152,-2.19312 -1.37069,-7.40182 -0.274151,-9.320793 1.096584,-1.918994 6.853565,-4.386268 7.675952,-6.716456 0.822433,-2.330199 -1.096584,-8.635461 1.507778,-11.925145 2.604362,-3.289707 8.224233,-2.467252 9.046643,-5.482807 0.822455,-3.015556 0.95952,-9.457882 5.071614,-11.239789 4.112139,-1.781907 7.264736,-1.096561 10.143227,-4.112117 2.878468,-3.015555 4.112094,-8.49836 8.772503,-9.457857 4.6604,-0.959497 9.59495,1.507778 11.65101,-1.233648 2.05605,-2.741404 3.42677,-8.635427 10.280291,-9.183708 6.85352,-0.548281 7.53889,5.071591 10.5544,2.33021 3.01555,-2.741426 5.48285,-8.224233 11.78806,-7.264759 6.30527,0.959519 5.75699,2.878513 8.49837,2.193145 2.74142,-0.685367 8.63545,-4.660397 13.70706,-3.975052 5.07161,0.685368 6.4423,4.386246 10.96564,4.112094 4.52333,-0.274129 7.67593,-4.52331 13.8441,-1.781884 6.1682,2.741426 4.38627,8.361298 10.41738,7.812995 6.03109,-0.548258 8.3613,-1.507755 11.92514,0.822432 3.56379,2.33021 2.19312,6.990608 7.67593,7.813017 5.48283,0.822433 9.73201,1.370691 11.51389,3.700899 1.78193,2.33021 1.37071,8.909578 4.38627,9.869053 3.01555,0.959542 8.49838,1.781952 11.10272,6.716478 2.60434,4.934527 -0.82243,10.965637 3.01556,11.788069 3.83796,0.82241 10.28027,3.700901 11.37683,8.635439 1.09656,4.934526 -0.9595,11.376854 1.64486,14.529474 2.60434,3.15264 6.16816,6.71645 4.38623,11.37684 -1.78189,4.6604 -2.74138,6.44231 -1.37067,9.73201 1.37067,3.28969 0.82241,10.96564 0.41119,13.29583 -0.41119,2.33021 -1.50778,7.4018 -1.50778,10.14322 0,2.74139 -6.85352,13.29583 -11.23976,15.62604 -4.38627,2.33019 -13.84413,5.61987 -17.40796,6.71643 -3.56384,1.09654 -19.32694,4.6604 -21.79419,10.55442 -2.4673,5.89403 1.37067,37.83146 -7.67595,37.55731 -9.04665,-0.27413 -34.953,-2.87847 -34.953,-2.87847 0,0 -5.894,7.26474 -16.99672,6.99059 -11.10268,-0.27415 -13.29583,-6.57939 -19.18985,-6.71646 z"
       inkscape:connector-curvature="0"
       clip-path="none"
       sodipodi:nodetypes="csccccscssssssccscssssssssssssssccsssssscssssscsc" />
  </g>
  <metadata
     id="metadata7">
    <rdf:RDF>
      <cc:Work>
        <dc:format>image/svg+xml</dc:format>
        <dc:type
           rdf:resource="http://purl.org/dc/dcmitype/StillImage" />
        <cc:license
           rdf:resource="http://creativecommons.org/licenses/publicdomain/" />
        <dc:publisher>
          <cc:Agent
             rdf:about="http://openclipart.org/">
            <dc:title>Open Clip Art Library</dc:title>
          </cc:Agent>
        </dc:publisher>
        <dc:title>Shell</dc:title>
        <dc:date>2013-01-27T13:47:08</dc:date>
        <dc:description />
        <dc:source>http://openclipart.org/detail/174565/shell-by-gosc-174565</dc:source>
        <dc:creator>
          <cc:Agent>
            <dc:title>Gosc</dc:title>
          </cc:Agent>
        </dc:creator>
        <dc:subject>
          <rdf:Bag>
            <rdf:li>Muschel</rdf:li>
            <rdf:li>Schale</rdf:li>
            <rdf:li>animal</rdf:li>
            <rdf:li>biology</rdf:li>
            <rdf:li>bivalve</rdf:li>
            <rdf:li>black and white</rdf:li>
            <rdf:li>clam</rdf:li>
            <rdf:li>clip art</rdf:li>
            <rdf:li>clipart</rdf:li>
            <rdf:li>contour</rdf:li>
            <rdf:li>evolution</rdf:li>
            <rdf:li>extinct</rdf:li>
            <rdf:li>lamellibranchiata</rdf:li>
            <rdf:li>line art</rdf:li>
            <rdf:li>mollusc</rdf:li>
            <rdf:li>outline</rdf:li>
            <rdf:li>shell</rdf:li>
            <rdf:li>svg</rdf:li>
          </rdf:Bag>
        </dc:subject>
      </cc:Work>
      <cc:License
         rdf:about="http://creativecommons.org/licenses/publicdomain/">
        <cc:permits
           rdf:resource="http://creativecommons.org/ns#Reproduction" />
        <cc:permits
           rdf:resource="http://creativecommons.org/ns#Distribution" />
        <cc:permits
           rdf:resource="http://creativecommons.org/ns#DerivativeWorks" />
      </cc:License>
    </rdf:RDF>
  </metadata>
</svg>
