<?xml version="1.0" encoding="UTF-8" standalone="no"?>
<svg
   xmlns:dc="http://purl.org/dc/elements/1.1/"
   xmlns:cc="http://creativecommons.org/ns#"
   xmlns:rdf="http://www.w3.org/1999/02/22-rdf-syntax-ns#"
   xmlns:svg="http://www.w3.org/2000/svg"
   xmlns="http://www.w3.org/2000/svg"
   xmlns:sodipodi="http://sodipodi.sourceforge.net/DTD/sodipodi-0.dtd"
   xmlns:inkscape="http://www.inkscape.org/namespaces/inkscape"
   style="overflow:hidden"
   width="128"
   version="1.1"
   height="128"
   id="svg2"
   inkscape:version="0.48.3.1 r9886"
   sodipodi:docname="user.svg"><metadata
   id="metadata200">
  <rdf:RDF>
    <cc:Work
       rdf:about="">
      <dc:format>image/svg+xml</dc:format>
      <dc:type
         rdf:resource="http://purl.org/dc/dcmitype/StillImage" />
    </cc:Work>
  </rdf:RDF>
</metadata>
<sodipodi:namedview
   pagecolor="#ffffff"
   bordercolor="#666666"
   borderopacity="1"
   objecttolerance="10"
   gridtolerance="10"
   guidetolerance="10"
   inkscape:pageopacity="0"
   inkscape:pageshadow="2"
   inkscape:window-width="1280"
   inkscape:window-height="756"
   id="namedview198"
   showgrid="false"
   inkscape:zoom="0.67428571"
   inkscape:cx="2.2245763"
   inkscape:cy="175"
   inkscape:window-x="0"
   inkscape:window-y="22"
   inkscape:window-maximized="1"
   inkscape:current-layer="svg2" />
<desc
   id="desc4">Created with Raphaël 2.1.2</desc>
<defs
   id="defs6" />
<path
   style="fill:#ffffff;fill-opacity:1;stroke:none"
   d="m 86.672753,47.33779 c 0,0 4.000688,-16.539974 0,-22.142836 -4.005411,-5.602863 -5.602863,-9.334957 -14.410045,-12.006799 0,0 -5.598149,-2.139365 -12.002094,-1.866057 -6.403936,0.268605 -11.74291,3.732104 -11.74291,5.598151 0,0 -4.000695,0.268595 -5.598147,1.87076 -1.602162,1.602164 -4.269293,9.066361 -4.269293,10.93712 0,0 1.333565,14.410045 2.667131,17.077174 0,0 -1.588027,0.532487 -1.588027,0.532487 -1.333566,15.470296 5.334261,17.341065 5.334261,17.341065 2.398532,14.410045 4.801777,8.274695 4.801777,12.006798 0,0 -2.403245,2.403247 -2.403245,2.403247 0,0 -2.129934,5.866735 -7.464195,8.001386 -5.334261,2.129939 -34.9460059,13.599534 -37.3539635,16.002784 -2.40795657,2.40796 -2.13464663,13.60895 -2.13464663,13.60895 0,0 126.98085413,0 126.98085413,0 0,0 0.27802,-11.20099 -2.12994,-13.60895 C 122.94761,100.68511 93.335867,89.220225 88.0016,87.090286 82.667342,84.955635 80.537403,79.0889 80.537403,79.0889 c 0,0 -2.403237,1.328846 -2.403237,-2.403247 0,0 2.403237,2.403247 4.806484,-12.006798 0,0 6.663114,-1.870769 5.334258,-17.341065 0,0 -1.602155,0 -1.602155,0 0,0 0,0 0,0"
   id="path8"
   inkscape:connector-curvature="0" />
<circle
   transform="matrix(10,0,0,10,10,-212)"
   style="fill:#aaaaaa;stroke:#333333;stroke-width:0.1"
   r="0"
   cy="12.364"
   cx="20.771"
   id="circle148"
   sodipodi:cx="20.771"
   sodipodi:cy="12.364"
   sodipodi:rx="0"
   sodipodi:ry="0" />
<circle
   transform="matrix(10,0,0,10,10,-212)"
   style="fill:#aaaaaa;stroke:#333333;stroke-width:0.1"
   r="0"
   cy="7.665"
   cx="20.771"
   id="circle150"
   sodipodi:cx="20.771"
   sodipodi:cy="7.665"
   sodipodi:rx="0"
   sodipodi:ry="0" />
<circle
   transform="matrix(10,0,0,10,10,-212)"
   style="fill:#aaaaaa;stroke:#333333;stroke-width:0.1"
   r="0"
   cy="5.1170001"
   cx="17.712999"
   id="circle152"
   sodipodi:cx="17.712999"
   sodipodi:cy="5.1170001"
   sodipodi:rx="0"
   sodipodi:ry="0" />
<circle
   transform="matrix(10,0,0,10,10,-212)"
   style="fill:#aaaaaa;stroke:#333333;stroke-width:0.1"
   r="0"
   cy="4.7210002"
   cx="15.166"
   id="circle154"
   sodipodi:cx="15.166"
   sodipodi:cy="4.7210002"
   sodipodi:rx="0"
   sodipodi:ry="0" />
<circle
   transform="matrix(10,0,0,10,10,-212)"
   style="fill:#aaaaaa;stroke:#333333;stroke-width:0.1"
   r="0"
   cy="5.9089999"
   cx="12.674"
   id="circle156"
   sodipodi:cx="12.674"
   sodipodi:cy="5.9089999"
   sodipodi:rx="0"
   sodipodi:ry="0" />
<circle
   transform="matrix(10,0,0,10,10,-212)"
   style="fill:#aaaaaa;stroke:#333333;stroke-width:0.1"
   r="0"
   cy="6.3060002"
   cx="11.486"
   id="circle158"
   sodipodi:cx="11.486"
   sodipodi:cy="6.3060002"
   sodipodi:rx="0"
   sodipodi:ry="0" />
<circle
   transform="matrix(10,0,0,10,10,-212)"
   style="fill:#aaaaaa;stroke:#333333;stroke-width:0.1"
   r="0"
   cy="8.6269999"
   cx="10.58"
   id="circle160"
   sodipodi:cx="10.58"
   sodipodi:cy="8.6269999"
   sodipodi:rx="0"
   sodipodi:ry="0" />
<circle
   transform="matrix(10,0,0,10,10,-212)"
   style="fill:#aaaaaa;stroke:#333333;stroke-width:0.1"
   r="0"
   cy="12.251"
   cx="11.146"
   id="circle162"
   sodipodi:cx="11.146"
   sodipodi:cy="12.251"
   sodipodi:rx="0"
   sodipodi:ry="0" />
<circle
   transform="matrix(10,0,0,10,10,-212)"
   style="fill:#aaaaaa;stroke:#333333;stroke-width:0.1"
   r="0"
   cy="12.364"
   cx="10.809"
   id="circle164"
   sodipodi:cx="10.809"
   sodipodi:cy="12.364"
   sodipodi:rx="0"
   sodipodi:ry="0" />
<circle
   transform="matrix(10,0,0,10,10,-212)"
   style="fill:#aaaaaa;stroke:#333333;stroke-width:0.1"
   r="0"
   cy="16.044001"
   cx="11.941"
   id="circle166"
   sodipodi:cx="11.941"
   sodipodi:cy="16.044001"
   sodipodi:rx="0"
   sodipodi:ry="0" />
<circle
   transform="matrix(10,0,0,10,10,-212)"
   style="fill:#aaaaaa;stroke:#333333;stroke-width:0.1"
   r="0"
   cy="18.591999"
   cx="12.96"
   id="circle168"
   sodipodi:cx="12.96"
   sodipodi:cy="18.591999"
   sodipodi:rx="0"
   sodipodi:ry="0" />
<circle
   transform="matrix(10,0,0,10,10,-212)"
   style="fill:#aaaaaa;stroke:#333333;stroke-width:0.1"
   r="0"
   cy="19.101999"
   cx="12.45"
   id="circle170"
   sodipodi:cx="12.45"
   sodipodi:cy="19.101999"
   sodipodi:rx="0"
   sodipodi:ry="0" />
<circle
   transform="matrix(10,0,0,10,10,-212)"
   style="fill:#aaaaaa;stroke:#333333;stroke-width:0.1"
   r="0"
   cy="20.799999"
   cx="10.866"
   id="circle172"
   sodipodi:cx="10.866"
   sodipodi:cy="20.799999"
   sodipodi:rx="0"
   sodipodi:ry="0" />
<circle
   transform="matrix(10,0,0,10,10,-212)"
   style="fill:#aaaaaa;stroke:#333333;stroke-width:0.1"
   r="0"
   cy="24.195999"
   cx="2.9389999"
   id="circle174"
   sodipodi:cx="2.9389999"
   sodipodi:cy="24.195999"
   sodipodi:rx="0"
   sodipodi:ry="0" />
<circle
   transform="matrix(10,0,0,10,10,-212)"
   style="fill:#aaaaaa;stroke:#333333;stroke-width:0.1"
   r="0"
   cy="27.084"
   cx="2.4860001"
   id="circle176"
   sodipodi:cx="2.4860001"
   sodipodi:cy="27.084"
   sodipodi:rx="0"
   sodipodi:ry="0" />
<circle
   transform="matrix(10,0,0,10,10,-212)"
   style="fill:#aaaaaa;stroke:#333333;stroke-width:0.1"
   r="0"
   cy="27.084"
   cx="29.433001"
   id="circle178"
   sodipodi:cx="29.433001"
   sodipodi:cy="27.084"
   sodipodi:rx="0"
   sodipodi:ry="0" />
<circle
   transform="matrix(10,0,0,10,10,-212)"
   style="fill:#aaaaaa;stroke:#333333;stroke-width:0.1"
   r="0"
   cy="24.195999"
   cx="28.981001"
   id="circle180"
   sodipodi:cx="28.981001"
   sodipodi:cy="24.195999"
   sodipodi:rx="0"
   sodipodi:ry="0" />
<circle
   transform="matrix(10,0,0,10,10,-212)"
   style="fill:#aaaaaa;stroke:#333333;stroke-width:0.1"
   r="0"
   cy="20.799999"
   cx="21.052999"
   id="circle182"
   sodipodi:cx="21.052999"
   sodipodi:cy="20.799999"
   sodipodi:rx="0"
   sodipodi:ry="0" />
<circle
   transform="matrix(10,0,0,10,10,-212)"
   style="fill:#aaaaaa;stroke:#333333;stroke-width:0.1"
   r="0"
   cy="19.101999"
   cx="19.469"
   id="circle184"
   sodipodi:cx="19.469"
   sodipodi:cy="19.101999"
   sodipodi:rx="0"
   sodipodi:ry="0" />
<circle
   transform="matrix(10,0,0,10,10,-212)"
   style="fill:#aaaaaa;stroke:#333333;stroke-width:0.1"
   r="0"
   cy="18.591999"
   cx="18.959"
   id="circle186"
   sodipodi:cx="18.959"
   sodipodi:cy="18.591999"
   sodipodi:rx="0"
   sodipodi:ry="0" />
<circle
   transform="matrix(10,0,0,10,10,-212)"
   style="fill:#aaaaaa;stroke:#333333;stroke-width:0.1"
   r="0"
   cy="16.044001"
   cx="19.979"
   id="circle188"
   sodipodi:cx="19.979"
   sodipodi:cy="16.044001"
   sodipodi:rx="0"
   sodipodi:ry="0" />
<circle
   transform="matrix(10,0,0,10,10,-212)"
   style="fill:#aaaaaa;stroke:#333333;stroke-width:0.1"
   r="0"
   cy="12.364"
   cx="21.111"
   id="circle190"
   sodipodi:cx="21.111"
   sodipodi:cy="12.364"
   sodipodi:rx="0"
   sodipodi:ry="0" />
<circle
   transform="matrix(10,0,0,10,10,-212)"
   style="fill:#aaaaaa;stroke:#333333;stroke-width:0.1"
   r="0"
   cy="12.364"
   cx="20.771"
   id="circle192"
   sodipodi:cx="20.771"
   sodipodi:cy="12.364"
   sodipodi:rx="0"
   sodipodi:ry="0" />
<circle
   transform="matrix(10,0,0,10,10,-212)"
   style="fill:#aaaaaa;stroke:#333333;stroke-width:0.1"
   r="0"
   cy="12.364"
   cx="20.771"
   id="circle194"
   sodipodi:cx="20.771"
   sodipodi:cy="12.364"
   sodipodi:rx="0"
   sodipodi:ry="0" />
​​​​​​​​​​</svg>
